<?xml version="1.0" encoding="UTF-8"?>
<svg id="Layer_2" data-name="Layer 2" xmlns="http://www.w3.org/2000/svg" viewBox="0 0 129.33 22.88">
  <defs>
    <style>
      .cls-1 {
        fill: #1c314b;
      }

      .cls-1, .cls-2 {
        stroke-width: 0px;
      }

      .cls-2 {
        fill: #e9b747;
      }
    </style>
  </defs>
  <g id="Layer_1-2" data-name="Layer 1">
    <g>
      <path class="cls-1" d="m6.95,18.76h6.11c4.22,0,7.09-3.18,7.09-7.3s-2.86-7.32-7.09-7.32h-6.11V.34h6.24c6.6,0,11.47,4.76,11.47,11.11s-4.88,11.11-11.47,11.11h-6.24v-3.81Z"/>
      <path class="cls-1" d="m27.41,22.55V.33h4.01l12.29,15.25V.33h4.42v22.23h-4.08l-12.23-15.09v15.09h-4.42Z"/>
      <path class="cls-1" d="m54.23,15.27c1.05,2.14,3.04,3.62,5.71,3.62,2.13,0,3.81-1.03,3.81-2.47s-1.65-2.26-4.3-3.09c-4.27-1.34-7.76-2.65-7.76-6.94s4.11-6.38,7.87-6.38c4.03,0,6.81,2.36,8.22,4.83l-3.41,2.42c-.97-1.62-2.57-3.26-4.93-3.26-1.72,0-3.24.92-3.24,2.37,0,1.78,1.62,2.05,4.4,3.03,4.17,1.47,7.64,2.6,7.64,6.99s-4.4,6.5-8.36,6.5c-4.29,0-7.6-2.24-8.92-5.25l3.26-2.36Z"/>
      <path class="cls-2" d="m70.79,16.97v-3.42L80.35.33h5.19v12.88h3.08v3.76h-3.08v5.6h-4.24v-5.6h-10.51Zm10.51-3.76v-7.84l-5.7,7.84h5.7Z"/>
      <path class="cls-1" d="m91.38.26h15.81v3.83h-11.39v5.12h9.89v3.83h-9.89v5.63h11.64v3.81h-16.06V.26Z"/>
      <path class="cls-1" d="m110.32,14.11V.33h4.4v13.68c0,3.01,2.16,4.91,5.11,4.91s5.11-1.9,5.11-4.91V.33h4.4v13.78c0,5.34-3.81,8.77-9.51,8.77s-9.51-3.44-9.51-8.77Z"/>
      <path class="cls-2" d="m4.17,5.49c1.14,1.62,2.55,3.03,4.17,4.17-1.62,1.14-3.03,2.55-4.17,4.17-1.14-1.62-2.55-3.03-4.17-4.17,1.62-1.14,3.03-2.55,4.17-4.17Z"/>
    </g>
  </g>
</svg>