<?xml version="1.0" encoding="UTF-8" standalone="no"?>
<!-- Created with Inkscape (http://www.inkscape.org/) -->

<svg
   width="62.126286mm"
   height="41.418194mm"
   viewBox="0 0 62.126286 41.418194"
   version="1.1"
   id="svg893"
   inkscape:version="1.1.2 (0a00cf5339, 2022-02-04)"
   sodipodi:docname="eu.logo.svg"
   xmlns:inkscape="http://www.inkscape.org/namespaces/inkscape"
   xmlns:sodipodi="http://sodipodi.sourceforge.net/DTD/sodipodi-0.dtd"
   xmlns="http://www.w3.org/2000/svg"
   xmlns:svg="http://www.w3.org/2000/svg">
  <sodipodi:namedview
     id="namedview895"
     pagecolor="#ffffff"
     bordercolor="#666666"
     borderopacity="1.0"
     inkscape:pageshadow="2"
     inkscape:pageopacity="0.0"
     inkscape:pagecheckerboard="0"
     inkscape:document-units="mm"
     showgrid="false"
     fit-margin-top="0"
     fit-margin-left="0"
     fit-margin-right="0"
     fit-margin-bottom="0"
     inkscape:zoom="3.6088064"
     inkscape:cx="69.829182"
     inkscape:cy="100.72582"
     inkscape:window-width="2560"
     inkscape:window-height="1341"
     inkscape:window-x="0"
     inkscape:window-y="28"
     inkscape:window-maximized="1"
     inkscape:current-layer="layer1" />
  <defs
     id="defs890" />
  <g
     inkscape:label="Layer 1"
     inkscape:groupmode="layer"
     id="layer1"
     transform="translate(-1.3489199,-1.2531713)">
    <path
       d="M 1.3489199,1.2531713 H 63.475207 V 42.671366 H 1.3489199 V 1.2531713"
       style="fill:#2a3c93;fill-opacity:1;fill-rule:nonzero;stroke:none;stroke-width:0.0352778"
       id="path42" />
    <path
       d="m 31.088441,10.27758 1.310922,-0.9567337 1.310922,0.9567337 -0.498827,-1.5469307 1.331383,-0.956733 h -1.641122 l -0.502356,-1.565981 -0.502355,1.567745 -1.640417,-0.0018 1.330678,0.956733 -0.498828,1.5469307"
       style="fill:#fbca07;fill-opacity:1;fill-rule:nonzero;stroke:none;stroke-width:0.0352778"
       id="path44" />
    <path
       d="m 24.304171,12.100383 1.310922,-0.956734 1.310217,0.956734 -0.498122,-1.547284 1.330678,-0.9567327 h -1.641123 l -0.502355,-1.567392 -0.502356,1.569156 -1.640417,-0.0018 1.330678,0.9567327 -0.498122,1.547284"
       style="fill:#fbca07;fill-opacity:1;fill-rule:nonzero;stroke:none;stroke-width:0.0352778"
       id="path46" />
    <path
       d="m 20.651157,13.003847 -0.502356,1.569508 -1.640416,-0.0018 1.330677,0.956733 -0.498827,1.546931 1.310922,-0.956381 1.310922,0.956381 -0.498828,-1.546931 1.330678,-0.956733 h -1.640417 l -0.502355,-1.567744"
       style="fill:#fbca07;fill-opacity:1;fill-rule:nonzero;stroke:none;stroke-width:0.0352778"
       id="path48" />
    <path
       d="m 18.830118,22.894325 1.310217,0.956733 -0.498123,-1.547283 1.330678,-0.956734 h -1.640417 l -0.502355,-1.567391 -0.502003,1.570919 -1.641475,-0.0035 1.331736,0.956734 -0.49918,1.547283 1.310922,-0.956733"
       style="fill:#fbca07;fill-opacity:1;fill-rule:nonzero;stroke:none;stroke-width:0.0352778"
       id="path50" />
    <path
       d="m 21.153512,28.143306 -0.502355,-1.567745 -0.502356,1.569509 -1.640416,-0.0018 1.330677,0.956733 -0.498827,1.547001 1.310922,-0.958567 1.310922,0.958567 -0.498828,-1.547001 1.330678,-0.956733 h -1.640417"
       style="fill:#fbca07;fill-opacity:1;fill-rule:nonzero;stroke:none;stroke-width:0.0352778"
       id="path52" />
    <path
       d="m 26.126974,33.116591 -0.502356,-1.56584 -0.501297,1.567498 -1.641475,-0.0017 1.330678,0.956663 -0.498122,1.547107 1.311275,-0.956628 1.309864,0.956628 -0.498123,-1.547107 1.330678,-0.956663 h -1.641122"
       style="fill:#fbca07;fill-opacity:1;fill-rule:nonzero;stroke:none;stroke-width:0.0352778"
       id="path54" />
    <path
       d="m 32.902424,34.918791 -0.502355,-1.567638 -0.501298,1.569297 -1.641475,-0.0017 1.330678,0.956663 -0.497769,1.546966 1.310922,-0.956345 1.309864,0.956345 -0.498828,-1.546966 1.331736,-0.956663 h -1.641475"
       style="fill:#fbca07;fill-opacity:1;fill-rule:nonzero;stroke:none;stroke-width:0.0352778"
       id="path56" />
    <path
       d="m 39.677875,33.116591 -0.501298,-1.56584 -0.503061,1.567498 -1.639711,-0.0017 1.329972,0.956663 -0.498122,1.547107 1.310922,-0.956628 1.310923,0.956628 -0.499886,-1.547107 1.331736,-0.956663 h -1.641475"
       style="fill:#fbca07;fill-opacity:1;fill-rule:nonzero;stroke:none;stroke-width:0.0352778"
       id="path58" />
    <path
       d="m 44.6531,28.143306 -0.503061,-1.567745 -0.503414,1.569509 -1.639358,-0.0018 1.331383,0.956733 -0.499533,1.547001 1.310922,-0.958567 1.310922,0.958567 -0.499886,-1.547001 1.331736,-0.956733 H 44.6531"
       style="fill:#fbca07;fill-opacity:1;fill-rule:nonzero;stroke:none;stroke-width:0.0352778"
       id="path60" />
    <path
       d="m 48.0948,21.328344 h -1.641122 l -0.503414,-1.567744 -0.501297,1.569508 -1.641475,-0.0018 1.331736,0.956734 -0.498122,1.547283 1.309158,-0.958497 1.310922,0.958497 -0.497769,-1.547283 1.331383,-0.956734"
       style="fill:#fbca07;fill-opacity:1;fill-rule:nonzero;stroke:none;stroke-width:0.0352778"
       id="path62" />
    <path
       d="m 42.839117,17.054794 1.310922,-0.956381 1.310922,0.956381 -0.499886,-1.546931 1.331736,-0.954969 H 44.6531 l -0.503061,-1.567745 -0.503414,1.569509 -1.639358,-0.0018 1.331383,0.954969 -0.499533,1.546931"
       style="fill:#fbca07;fill-opacity:1;fill-rule:nonzero;stroke:none;stroke-width:0.0352778"
       id="path64" />
    <path
       d="m 39.195275,8.0303853 -0.501298,1.569509 -1.641475,-0.0035 1.329973,0.9584967 -0.498123,1.547283 1.312687,-0.958497 1.309158,0.958497 -0.497769,-1.547283 1.331383,-0.9584967 h -1.642886 l -0.50165,-1.565981"
       style="fill:#fbca07;fill-opacity:1;fill-rule:nonzero;stroke:none;stroke-width:0.0352778"
       id="path66" />
  </g>
</svg>
