<svg xmlns="http://www.w3.org/2000/svg" width="2550" height="1977" viewBox="0 0 2550 1977" version="1.1"><path d="" stroke="none" fill="#102c34" fill-rule="evenodd"/><path d="M 1291 63.683 C 1262.341 65.317, 1225.195 69.934, 1199.500 75.057 C 1167.084 81.520, 1131.440 93.389, 1093 110.519 C 1078.414 117.020, 1038.867 136.917, 1018.500 148.004 C 1009.150 153.093, 992.950 161.747, 982.500 167.234 C 921.262 199.391, 875.833 231.881, 831.119 275.500 C 726.112 377.936, 665.563 506.543, 655.039 649.500 C 653.106 675.750, 654.031 730.972, 656.404 731.024 C 658.072 731.061, 759.383 701.761, 760.306 700.975 C 760.749 700.598, 760.585 687.920, 759.941 672.803 C 757.145 607.128, 764.350 541.470, 781.026 480.651 C 801.854 404.689, 840.518 330.696, 891.731 268.795 C 897.373 261.975, 898.516 261.022, 899.149 262.616 C 899.560 263.652, 902.423 277.100, 905.511 292.500 C 967.139 599.798, 1097.274 895.872, 1288.857 1164.656 L 1307.500 1190.812 1320 1191.656 C 1343.123 1193.217, 1391.076 1192.651, 1404.445 1190.658 C 1411.015 1189.678, 1416.760 1188.648, 1417.212 1188.369 C 1417.664 1188.090, 1414.764 1184.352, 1410.767 1180.062 C 1367.205 1133.312, 1349.912 1113.488, 1319.549 1075.500 C 1289.822 1038.307, 1229.302 958.364, 1230.196 957.470 C 1230.420 957.247, 1242.955 951.372, 1258.052 944.416 C 1358.520 898.121, 1419.400 865.500, 1475 828.171 C 1483.525 822.448, 1490.623 817.658, 1490.772 817.527 C 1490.922 817.396, 1489.705 813.736, 1488.068 809.394 C 1486.430 805.052, 1482.107 793.175, 1478.459 783 C 1469.551 758.147, 1459.406 735, 1457.422 735 C 1457.208 735, 1450.163 740.086, 1441.767 746.302 C 1383.503 789.437, 1327.503 825.698, 1271.500 856.556 C 1255.524 865.358, 1195.492 895.220, 1191.269 896.465 C 1189.283 897.050, 1188.083 895.656, 1180.372 883.811 C 1152.301 840.693, 1123.772 792.357, 1090.770 732 C 1071.955 697.587, 1070.825 695.300, 1071.192 692.346 C 1071.463 690.151, 1073.335 689.088, 1087 683.365 C 1167.960 649.457, 1241.968 610.646, 1306.500 568.257 C 1327.046 554.761, 1357.589 533.474, 1358.482 532.029 C 1359.669 530.109, 1323.479 467.133, 1308.871 445.697 C 1308.525 445.189, 1299.750 451.249, 1289.371 459.163 C 1202.822 525.160, 1132.204 572.177, 1057.654 613.442 C 1045.690 620.064, 1043.243 621.064, 1039.654 620.803 L 1035.500 620.500 1023.916 595 C 976.219 490.002, 937.582 380.295, 906.639 262 L 904.154 252.500 906.889 249.500 C 937.242 216.199, 971.830 183.772, 996.500 165.488 L 1003.500 160.300 1053.500 146.144 L 1103.500 131.987 1106.500 135.389 C 1108.150 137.260, 1117.625 148.175, 1127.556 159.645 C 1359.200 427.200, 1523.414 741.222, 1614.009 1089.881 L 1615.148 1094.262 1619.177 1090.381 C 1626.953 1082.891, 1642.280 1064.404, 1648.685 1054.789 C 1656.065 1043.711, 1662.002 1030.907, 1664.814 1020.002 L 1666.748 1012.505 1661.924 998.502 C 1659.271 990.801, 1652.629 970.775, 1647.164 954 C 1635.720 918.870, 1628.026 897.718, 1620.248 880 C 1617.229 873.125, 1612.617 862.100, 1609.997 855.500 C 1607.378 848.900, 1600.463 833.512, 1594.631 821.304 C 1583.390 797.774, 1577.323 783.318, 1574.570 773.500 C 1573.644 770.200, 1572.677 766.775, 1572.420 765.889 C 1572.086 764.736, 1576.851 760.622, 1589.216 751.389 C 1640.054 713.429, 1696.600 666.588, 1745.500 621.928 C 1767.432 601.898, 1765.420 605.006, 1764.691 592.263 C 1762.737 558.107, 1752.541 520.706, 1737.221 491.500 C 1730.145 478.010, 1731.372 477.507, 1707.440 503.701 C 1685.149 528.098, 1626.694 587.084, 1602.992 609.097 C 1584.319 626.439, 1557.456 650.385, 1538.858 666.265 L 1525.216 677.914 1493.446 624.707 C 1457.539 564.572, 1438.619 533.913, 1422.754 510.151 C 1411.862 493.838, 1411.843 493.798, 1414.041 492.259 C 1419.571 488.385, 1456.945 458.038, 1470 446.820 C 1514.238 408.809, 1559.931 364.708, 1604.794 316.723 C 1609.307 311.896, 1613 307.537, 1613 307.038 C 1613 305.236, 1594.302 283.271, 1584.016 272.990 C 1571.952 260.932, 1559.738 251.112, 1548.655 244.560 C 1541.208 240.157, 1530.104 235, 1528.070 235 C 1527.526 235, 1525.118 237.138, 1522.719 239.750 C 1520.321 242.363, 1512.811 250.575, 1506.031 258 C 1466.154 301.672, 1417.433 350.398, 1383.500 380.542 C 1367.379 394.864, 1352.683 407.067, 1351.923 406.765 C 1351.558 406.619, 1342.799 395.925, 1332.458 383 C 1288.090 327.544, 1242.811 274.342, 1203.287 231.225 C 1182.251 208.278, 1139.112 163.346, 1123.689 148.319 L 1109.133 134.137 1114.317 133.011 C 1169.593 120.998, 1246.160 118.840, 1307.500 127.567 C 1322.817 129.746, 1356.872 136.480, 1373 140.519 C 1535.729 181.272, 1694.078 321.614, 1762.652 485.861 C 1783.232 535.155, 1795.715 590.288, 1802.192 660.500 C 1803.876 678.764, 1803.867 741.015, 1802.177 759 C 1798.878 794.109, 1794.678 819.431, 1786.955 850.766 C 1755.870 976.893, 1682.417 1087.736, 1573.500 1172.877 L 1560.500 1183.039 1542.500 1188.950 C 1498.003 1203.563, 1456.210 1212.328, 1405.500 1217.682 C 1391.904 1219.118, 1380.089 1219.471, 1346.500 1219.447 C 1302.650 1219.414, 1291.725 1218.728, 1258.500 1213.918 C 1156.255 1199.114, 1063.473 1159.161, 987.712 1097.312 C 975.152 1087.059, 931.156 1044.511, 932.118 1043.549 C 932.368 1043.298, 942.742 1041.071, 955.170 1038.598 C 998.449 1029.989, 1043.832 1017.893, 1105.372 998.564 C 1141.679 987.161, 1143.560 986.497, 1143.278 985.194 C 1143.156 984.631, 1138.225 976.594, 1132.320 967.335 C 1126.415 958.076, 1119.504 946.417, 1116.963 941.427 L 1112.343 932.354 1093.641 939.615 C 950.114 995.346, 800.613 1031.512, 652 1046.454 C 623.927 1049.276, 597.039 1051.366, 565.500 1053.177 C 540.672 1054.603, 435.866 1054.960, 415.522 1053.689 C 386.840 1051.896, 411.677 1055.701, 456.372 1059.947 C 518.048 1065.805, 557.328 1067.462, 635 1067.480 C 697.090 1067.494, 730.062 1066.657, 770.500 1064.039 L 782.500 1063.262 784.997 1066.381 C 790.959 1073.828, 809.328 1094.357, 818.879 1104.248 C 863.287 1150.237, 926.663 1196.784, 983.903 1225.451 C 1038.131 1252.610, 1101.605 1270.420, 1169.173 1277.434 C 1304.330 1291.463, 1446.049 1260.706, 1540.834 1196.773 C 1544.867 1194.052, 1556.254 1188.075, 1566.137 1183.491 C 1639.736 1149.351, 1709.040 1097.840, 1763.901 1036.500 C 1784.767 1013.170, 1812.678 976.654, 1828.175 952.409 C 1872.494 883.073, 1899.846 799.374, 1909.679 703 C 1912.243 677.876, 1912.239 609.777, 1909.672 585.500 C 1902.407 516.779, 1887.632 460.405, 1862.771 406.554 C 1856.651 393.297, 1818.476 326.883, 1810.145 315 C 1788.986 284.817, 1768.226 260.153, 1741.042 232.902 C 1692.957 184.698, 1648.304 152.444, 1589 123.077 C 1519.876 88.846, 1446.008 69.328, 1365.500 64.020 C 1351.902 63.123, 1304.578 62.910, 1291 63.683 M 965 658.673 C 951.749 664.960, 921.950 677.800, 900 686.679 C 757.336 744.392, 599.028 781.855, 441.500 795.182 C 426.955 796.412, 426.682 796.476, 432.500 797.302 C 439.478 798.292, 525.323 797.416, 564 795.960 C 589.108 795.014, 632.298 792.735, 651.122 791.361 L 659.743 790.732 661.429 800.116 C 671.739 857.482, 691.615 916.400, 716.716 964 C 722.977 975.872, 737.319 1000.490, 740.170 1004.257 C 741.424 1005.913, 743.449 1005.638, 775.393 999.473 C 820.746 990.721, 867.731 979.669, 870.238 977.162 C 870.657 976.743, 868.887 973.498, 866.304 969.950 C 835.169 927.181, 807.062 870.820, 788.034 813 C 780.515 790.153, 779.147 783.118, 780.962 776.637 C 781.684 774.058, 782.577 771.761, 782.947 771.532 C 783.318 771.304, 795.293 768.812, 809.560 765.995 C 876.543 752.769, 928.831 739.236, 978.792 722.195 C 991.602 717.825, 1002.291 714.042, 1002.545 713.788 C 1003.375 712.958, 976.800 653.998, 975.634 654.082 C 975.010 654.128, 970.225 656.193, 965 658.673 M 1139 1448.080 C 795.702 1456.115, 466.992 1491.589, 156.694 1554.088 C 108.100 1563.876, 102.632 1565.483, 128 1562.523 C 172.053 1557.383, 297.653 1545.624, 373.500 1539.538 C 659.664 1516.580, 933.338 1506.009, 1241.500 1506.013 C 1532.615 1506.017, 1796.113 1515.259, 2083 1535.530 C 2191.798 1543.218, 2376.451 1559.006, 2433 1565.456 C 2458.668 1568.384, 2338.212 1543.710, 2255.005 1528.996 C 1987.475 1481.686, 1707.727 1454.935, 1408 1447.999 C 1359.744 1446.883, 1187.962 1446.934, 1139 1448.080 M 824.675 1621.056 C 790.655 1625.010, 761.066 1638.528, 740.349 1659.582 C 714.436 1685.916, 701.036 1722.774, 701.008 1767.789 C 700.980 1813.745, 714.078 1850.124, 739.977 1876.023 C 762.363 1898.409, 791.972 1910.835, 830.692 1914.092 C 864.615 1916.945, 896.713 1911.503, 930.248 1897.211 L 945.996 1890.500 945.998 1856.250 L 946 1822 941.921 1822 C 938.433 1822, 936.806 1822.846, 930.671 1827.847 C 902.923 1850.470, 878.726 1860.074, 853 1858.673 C 822.841 1857.031, 801.350 1843.734, 788.410 1818.710 C 781.271 1804.905, 778.858 1793.994, 778.257 1772.803 C 777.519 1746.813, 780.301 1731.968, 789.089 1715 C 798.444 1696.937, 814.865 1683.702, 834.500 1678.399 C 842.698 1676.186, 862.530 1675.424, 871.422 1676.981 C 888.907 1680.043, 909.509 1690.714, 929.671 1707.153 C 936.091 1712.387, 937.323 1713, 941.421 1713 L 946 1713 946 1678.131 L 946 1643.261 933.250 1637.723 C 911.099 1628.100, 892.883 1623.354, 869.144 1621.019 C 857.362 1619.860, 834.805 1619.879, 824.675 1621.056 M 407.233 1651.250 L 407.500 1676.500 430.750 1676.768 L 454 1677.037 454 1767.518 L 454 1858 430.500 1858 L 407 1858 407 1883.500 L 407 1909 490.500 1909 L 574 1909 574 1883.500 L 574 1858 551 1858 L 528 1858 528 1767.500 L 528 1677 551 1677 L 574 1677 574 1651.500 L 574 1626 490.483 1626 L 406.966 1626 407.233 1651.250 M 1104.525 1766.250 C 1076.043 1843.388, 1052.525 1907.063, 1052.263 1907.750 C 1051.887 1908.736, 1059.669 1908.999, 1089.143 1908.997 L 1126.500 1908.995 1129.215 1901.247 C 1130.708 1896.986, 1135.147 1884.162, 1139.079 1872.750 L 1146.229 1852 1198 1852 L 1249.771 1852 1256.904 1872.750 C 1260.826 1884.162, 1265.258 1896.987, 1266.751 1901.250 L 1269.466 1909 1307.746 1909 L 1346.027 1909 1344.701 1905.750 C 1343.972 1903.963, 1320.454 1840.297, 1292.438 1764.270 L 1241.500 1626.040 1198.905 1626.020 L 1156.309 1626 1104.525 1766.250 M 1470 1767.500 L 1470 1909 1503.995 1909 L 1537.990 1909 1538.245 1813.149 L 1538.500 1717.299 1597.625 1812.899 L 1656.751 1908.500 1692.375 1908.763 L 1728 1909.025 1728 1767.513 L 1728 1626 1694.006 1626 L 1660.012 1626 1659.756 1705.281 L 1659.500 1784.561 1609 1705.286 L 1558.500 1626.010 1514.250 1626.005 L 1470 1626 1470 1767.500 M 1884 1767.500 L 1884 1909 1917.995 1909 L 1951.990 1909 1952.245 1813.056 L 1952.500 1717.112 2011.683 1812.806 L 2070.865 1908.500 2106.933 1908.762 L 2143 1909.025 2143 1767.512 L 2143 1626 2109.006 1626 L 2075.012 1626 2074.756 1705.979 L 2074.500 1785.959 2023.543 1705.979 L 1972.586 1626 1928.293 1626 L 1884 1626 1884 1767.500 M 1180.847 1750.250 L 1164.300 1798.500 1181.150 1798.774 C 1190.418 1798.924, 1205.571 1798.924, 1214.825 1798.774 L 1231.651 1798.500 1215.091 1750.250 C 1205.983 1723.713, 1198.275 1702, 1197.963 1702 C 1197.650 1702, 1189.948 1723.713, 1180.847 1750.250" stroke="none" fill="#0c2c34" fill-rule="evenodd"/></svg>