<?xml version="1.0" encoding="UTF-8"?>
<svg id="Layer_1" data-name="Layer 1" xmlns="http://www.w3.org/2000/svg" version="1.1" viewBox="0 0 1322.4 319.9">
  <defs>
    <style>
      .cls-1 {
        fill: #231f20;
      }

      .cls-1, .cls-2 {
        stroke-width: 0px;
      }

      .cls-2 {
        fill: #5273f8;
      }
    </style>
  </defs>
  <g>
    <path class="cls-1" d="M268.4,146.2h38v104.2h64.1v30.1h-102.1v-134.3Z"/>
    <path class="cls-1" d="M477,254.4h-56.8l-10.6,26.1h-38.8l59.3-134.3h37.4l59.5,134.3h-39.5l-10.6-26.1ZM465.8,226.4l-17.3-43-17.3,43h34.5Z"/>
    <path class="cls-1" d="M665.6,243.6c0,23.2-19.2,36.8-55.3,36.8h-72.5v-134.3h68.7c35.3,0,52.6,14.4,52.6,35.1s-6.5,23.2-18,29.2c15.2,5.4,24.6,16.9,24.6,33.2ZM575.4,173.6v25.9h26.1c12.7,0,19.2-4.4,19.2-13.1s-6.5-12.9-19.2-12.9h-26.1ZM627.2,239.4c0-9.2-6.9-13.6-20-13.6h-31.9v27.3h31.9c13,0,20-4.4,20-13.6Z"/>
    <path class="cls-1" d="M684.2,220.6v-74.5h38v73.3c0,23,9.6,32.2,25.5,32.2s25.3-9.2,25.3-32.2v-73.3h37.4v74.5c0,40.1-23.4,62.6-63.1,62.6s-63.1-22.5-63.1-62.6Z"/>
    <path class="cls-1" d="M894.9,244.8h-20.7v35.7h-38v-134.3h61.4c36.7,0,59.7,19,59.7,49.7s-9.6,34.4-26.3,42.4l29,42.2h-40.7l-24.4-35.7ZM895.3,176.1h-21.1v39.3h21.1c15.7,0,23.6-7.3,23.6-19.6s-7.9-19.8-23.6-19.8Z"/>
    <path class="cls-1" d="M978.2,146.2h38v134.3h-38v-134.3Z"/>
    <path class="cls-1" d="M1071.8,176.3h-41.3v-30.1h120.3v30.1h-41.1v104.2h-38v-104.2Z"/>
    <path class="cls-1" d="M1233.8,232.3v48.2h-38v-48.7l-51.2-85.6h40.1l31.9,53.4,31.9-53.4h36.8l-51.4,86.2Z"/>
  </g>
  <g>
    <g>
      <rect class="cls-1" x="187.3" y="127.1" width="30.5" height="173.7"/>
      <rect class="cls-1" x="37.1" y="127.1" width="180.7" height="30.5"/>
      <path class="cls-1" d="M127.5,19.1c-37.7,0-68.4,30.7-68.4,68.4v60.3h136.7v-60.3c0-37.7-30.7-68.4-68.4-68.4ZM178.7,130.7h-102.5v-43.2c0-28.3,23-51.3,51.3-51.3s51.3,23,51.3,51.3v43.2Z"/>
      <g>
        <path class="cls-1" d="M217.8,270.3h-71.7c12.3,5.2,23.2,13.7,31.3,24.6l4.4,5.9h36v-30.5Z"/>
        <path class="cls-2" d="M165.1,299l1.4,1.8H37.1V127.1h0c16.9,0,30.5,13.7,30.5,30.5v113.4h41.7c22,0,42.6,10.4,55.8,28Z"/>
      </g>
    </g>
    <path class="cls-1" d="M144.7,250l-9.8-35.2c2-2,3.2-4.7,3.2-7.7,0-5.9-4.8-10.7-10.7-10.7s-10.7,4.8-10.7,10.7,1.2,5.7,3.2,7.7l-9.8,35.2h34.5Z"/>
  </g>
</svg>