<?xml version="1.0" encoding="utf-8"?>
<!-- Generator: Adobe Illustrator 19.1.0, SVG Export Plug-In . SVG Version: 6.00 Build 0)  -->
<svg version="1.1" id="Layer_1" xmlns="http://www.w3.org/2000/svg" xmlns:xlink="http://www.w3.org/1999/xlink" x="0px" y="0px"
	 viewBox="0 0 841.9 595.3" style="enable-background:new 0 0 841.9 595.3;" xml:space="preserve">
<style type="text/css">
	.st0{fill:#25316A;}
	.st1{fill:url(#SVGID_1_);}
	.st2{fill:#5B5C87;}
</style>
<g>
	<g>
		<path class="st0" d="M304.2,317l-15.9-28.3h-9.1l0,28.3h-20.1l0-80.2h35.1c8,0,14.2,1.7,19.2,5.4c6.2,4.5,9.4,11.9,9.4,19.9
			c0,9.8-4.7,19.3-15.2,23.6l18.4,31.3H304.2z M291.6,252.6h-12.5l0,21.2h12.5c7.2,0,11.7-4.2,11.7-10.7
			C303.3,255.7,298.3,252.6,291.6,252.6z"/>
		<path class="st0" d="M335.2,317l0-80.2l20.1,0l0,80.2H335.2z"/>
		<path class="st0" d="M405.7,289.2H389l0,27.8h-20l0-80.2h36.2c17.8,0,28.1,10.9,28.1,25.7C433.3,275.8,425.2,289.2,405.7,289.2z
			 M402,252.6l-12.9,0l0,21.2H402c6.9,0,11.7-3.6,11.7-10.8C413.7,256.1,409.2,252.6,402,252.6z"/>
		<path class="st0" d="M443.4,317l0-80.2h59l0,16.3h-39l0,15.3h32.8l0,16.2l-32.8,0l0,16l39.2,0l0,16.4H443.4z"/>
		<path class="st0" d="M593.4,317L562,269.9h-0.2l0,47.1h-18.6l0-80.2h19.5l30.5,45.3h0.2l0-45.3l18.7,0l0,80.2H593.4z"/>
		<path class="st0" d="M657.8,318.4c-17.7,0-34.2-8.9-34.2-28.9l0-24.4c0-19.7,16-29.6,33.6-29.6c15.6,0,32.6,7.9,32.6,26.4v5.1
			h-18.9v-3.2c0-8.3-7.1-11.9-13.3-11.9c-7.1,0-13.9,3.7-13.9,12.8l0,24.3c0,8.2,6,12.9,14.2,12.9c6.2,0,13-3.5,13-11.9v-3.3h18.9
			v5.4C689.8,310.5,673.3,318.4,657.8,318.4z"/>
		<path class="st0" d="M733.2,318.4c-17.7,0-34.2-8.9-34.2-28.9l0-24.4c0-19.7,16-29.6,33.6-29.6c15.6,0,32.6,7.9,32.6,26.4v5.1
			h-18.9v-3.2c0-8.3-7.1-11.9-13.3-11.9c-7.1,0-13.9,3.7-13.9,12.8l0,24.3c0,8.2,6,12.9,14.2,12.9c6.2,0,13-3.5,13-11.9v-3l18.9,0
			l0,5.1C765.3,310.5,748.7,318.4,733.2,318.4z"/>
	</g>
</g>
<linearGradient id="SVGID_1_" gradientUnits="userSpaceOnUse" x1="87.8899" y1="378.842" x2="211.2722" y2="255.4597">
	<stop  offset="0" style="stop-color:#25316A"/>
	<stop  offset="6.051821e-02" style="stop-color:#293269"/>
	<stop  offset="0.1216" style="stop-color:#343468"/>
	<stop  offset="0.183" style="stop-color:#453764"/>
	<stop  offset="0.2446" style="stop-color:#5B3C60"/>
	<stop  offset="0.3064" style="stop-color:#764459"/>
	<stop  offset="0.3684" style="stop-color:#964D4F"/>
	<stop  offset="0.4293" style="stop-color:#BF5A3D"/>
	<stop  offset="0.4872" style="stop-color:#F36C21"/>
	<stop  offset="1" style="stop-color:#9C9C9C"/>
</linearGradient>
<path class="st1" d="M192.9,283.7L192.9,283.7l0-46.6l-43.3-25l-43.3,25l0,46.6v0.1L66,307l0,50l43.3,25l40.3-23.3l40.3,23.3
	l43.3-25l0-50L192.9,283.7z M149.6,305.2l-34.4-19.9l34.4-19.9l34.4,19.9L149.6,305.2z M112.2,290.5l34.4,19.9l0,39.7l-34.4-19.9
	L112.2,290.5z M152.5,310.4l34.4-19.9l0,39.7L152.5,350L152.5,310.4z M112.2,240.5l37.4-21.6l37.4,21.6l0,39.7l-37.4-21.6
	l-37.4,21.6L112.2,240.5z M71.9,353.5l0-43.2l34.4-19.9l0,43.1l37.4,21.6l-34.5,19.9L71.9,353.5z M227.3,353.5l-37.4,21.6
	l-34.5-19.9l37.4-21.6l0-43.1l34.4,19.9L227.3,353.5z"/>
<g>
	<path class="st2" d="M262.4,349.1v7.9h-2.2v-19.1h5.2c2.3,0,4.1,0.4,5.2,1.3s1.7,2.2,1.7,4.1c0,2.5-1.3,4.2-3.8,5.1l5.2,8.6H271
		l-4.6-7.9H262.4z M262.4,347.2h3c1.6,0,2.7-0.3,3.5-0.9s1.1-1.6,1.1-2.8c0-1.3-0.4-2.2-1.1-2.7s-1.9-0.8-3.6-0.8h-2.9V347.2z"/>
	<path class="st2" d="M276.8,357v-19.1h2.2V357H276.8z"/>
	<path class="st2" d="M296.5,343.5c0,1.9-0.7,3.4-2,4.5c-1.3,1-3.2,1.6-5.7,1.6h-2.2v7.5h-2.2v-19.1h5
		C294.1,337.9,296.5,339.8,296.5,343.5z M286.6,347.6h2c2,0,3.4-0.3,4.3-1c0.9-0.6,1.3-1.7,1.3-3.1c0-1.3-0.4-2.2-1.2-2.8
		c-0.8-0.6-2.1-0.9-3.9-0.9h-2.5V347.6z"/>
	<path class="st2" d="M311.2,357h-10.7v-19.1h10.7v2h-8.4v6.2h7.9v2h-7.9v7h8.4V357z"/>
	<path class="st2" d="M337.5,357H335l-10.4-16h-0.1c0.1,1.9,0.2,3.6,0.2,5.2V357h-2.1v-19.1h2.5l10.4,16h0.1c0-0.2-0.1-1-0.1-2.3
		c-0.1-1.3-0.1-2.2-0.1-2.7v-11h2.1V357z"/>
	<path class="st2" d="M353.5,357h-10.7v-19.1h10.7v2H345v6.2h7.9v2H345v7h8.4V357z"/>
	<path class="st2" d="M363.7,357h-2.2v-17.1h-6.1v-2h14.3v2h-6.1V357z"/>
	<path class="st2" d="M389.4,357h-2.2l-3.9-12.8c-0.2-0.6-0.4-1.3-0.6-2.1s-0.3-1.4-0.4-1.6c-0.2,1.2-0.5,2.4-0.9,3.8l-3.7,12.7
		h-2.2l-5.1-19.1h2.4l3,11.8c0.4,1.7,0.7,3.2,0.9,4.5c0.2-1.6,0.6-3.2,1-4.7l3.4-11.6h2.4l3.6,11.7c0.4,1.4,0.8,2.9,1.1,4.6
		c0.2-1.2,0.5-2.7,0.9-4.5l3-11.8h2.4L389.4,357z"/>
	<path class="st2" d="M414.1,347.4c0,3.1-0.8,5.5-2.3,7.2c-1.5,1.8-3.7,2.6-6.5,2.6c-2.8,0-5-0.9-6.5-2.6c-1.5-1.7-2.3-4.2-2.3-7.3
		c0-3.1,0.8-5.5,2.3-7.2c1.5-1.7,3.7-2.6,6.5-2.6c2.7,0,4.9,0.9,6.4,2.6C413.4,342,414.1,344.4,414.1,347.4z M398.9,347.4
		c0,2.6,0.6,4.6,1.7,5.9s2.7,2,4.8,2c2.1,0,3.7-0.7,4.8-2c1.1-1.3,1.6-3.3,1.6-5.9c0-2.6-0.5-4.5-1.6-5.8c-1.1-1.3-2.7-2-4.8-2
		c-2.1,0-3.7,0.7-4.8,2C399.5,342.9,398.9,344.9,398.9,347.4z"/>
	<path class="st2" d="M420.7,349.1v7.9h-2.2v-19.1h5.2c2.3,0,4.1,0.4,5.2,1.3c1.1,0.9,1.7,2.2,1.7,4.1c0,2.5-1.3,4.2-3.8,5.1
		l5.2,8.6h-2.6l-4.6-7.9H420.7z M420.7,347.2h3c1.6,0,2.7-0.3,3.5-0.9s1.1-1.6,1.1-2.8c0-1.3-0.4-2.2-1.1-2.7
		c-0.7-0.6-1.9-0.8-3.6-0.8h-2.9V347.2z"/>
	<path class="st2" d="M448.9,357h-2.6l-7-9.3l-2,1.8v7.5h-2.2v-19.1h2.2v9.5l8.7-9.5h2.6l-7.7,8.3L448.9,357z"/>
	<path class="st2" d="M466.8,339.6c-2.1,0-3.8,0.7-5,2.1c-1.2,1.4-1.8,3.3-1.8,5.7c0,2.5,0.6,4.4,1.8,5.8c1.2,1.4,2.8,2,5,2
		c1.3,0,2.9-0.2,4.6-0.7v1.9c-1.3,0.5-3,0.7-4.9,0.7c-2.8,0-5-0.9-6.5-2.6s-2.3-4.1-2.3-7.3c0-2,0.4-3.7,1.1-5.2
		c0.7-1.5,1.8-2.6,3.2-3.4s3-1.2,4.9-1.2c2,0,3.8,0.4,5.3,1.1l-0.9,1.9C469.7,340,468.3,339.6,466.8,339.6z"/>
	<path class="st2" d="M492.2,347.4c0,3.1-0.8,5.5-2.3,7.2c-1.5,1.8-3.7,2.6-6.5,2.6c-2.8,0-5-0.9-6.5-2.6c-1.5-1.7-2.3-4.2-2.3-7.3
		c0-3.1,0.8-5.5,2.3-7.2c1.5-1.7,3.7-2.6,6.5-2.6c2.7,0,4.9,0.9,6.4,2.6C491.4,342,492.2,344.4,492.2,347.4z M477,347.4
		c0,2.6,0.6,4.6,1.7,5.9c1.1,1.3,2.7,2,4.8,2c2.1,0,3.7-0.7,4.8-2c1.1-1.3,1.6-3.3,1.6-5.9c0-2.6-0.5-4.5-1.6-5.8s-2.7-2-4.8-2
		c-2.1,0-3.7,0.7-4.8,2C477.5,342.9,477,344.9,477,347.4z"/>
	<path class="st2" d="M513.1,347.4c0,3.1-0.8,5.5-2.3,7.2c-1.5,1.8-3.7,2.6-6.5,2.6c-2.8,0-5-0.9-6.5-2.6c-1.5-1.7-2.3-4.2-2.3-7.3
		c0-3.1,0.8-5.5,2.3-7.2c1.5-1.7,3.7-2.6,6.5-2.6c2.7,0,4.9,0.9,6.4,2.6C512.4,342,513.1,344.4,513.1,347.4z M497.9,347.4
		c0,2.6,0.6,4.6,1.7,5.9c1.1,1.3,2.7,2,4.8,2c2.1,0,3.7-0.7,4.8-2c1.1-1.3,1.6-3.3,1.6-5.9c0-2.6-0.5-4.5-1.6-5.8s-2.7-2-4.8-2
		c-2.1,0-3.7,0.7-4.8,2C498.5,342.9,497.9,344.9,497.9,347.4z"/>
	<path class="st2" d="M519.7,349.1v7.9h-2.2v-19.1h5.2c2.3,0,4.1,0.4,5.2,1.3s1.7,2.2,1.7,4.1c0,2.5-1.3,4.2-3.8,5.1l5.2,8.6h-2.6
		l-4.6-7.9H519.7z M519.7,347.2h3c1.6,0,2.7-0.3,3.5-0.9s1.1-1.6,1.1-2.8c0-1.3-0.4-2.2-1.1-2.7s-1.9-0.8-3.6-0.8h-2.9V347.2z"/>
	<path class="st2" d="M549.4,347.3c0,3.2-0.9,5.6-2.6,7.2c-1.7,1.7-4.2,2.5-7.4,2.5h-5.3v-19.1h5.9c3,0,5.3,0.8,6.9,2.5
		C548.5,342,549.4,344.3,549.4,347.3z M547,347.4c0-2.5-0.6-4.4-1.9-5.6c-1.2-1.3-3.1-1.9-5.6-1.9h-3.2v15.3h2.7c2.6,0,4.6-0.7,6-2
		C546.3,351.8,547,349.9,547,347.4z"/>
	<path class="st2" d="M553.7,357v-19.1h2.2V357H553.7z"/>
	<path class="st2" d="M576.2,357h-2.5l-10.4-16h-0.1c0.1,1.9,0.2,3.6,0.2,5.2V357h-2.1v-19.1h2.5l10.4,16h0.1c0-0.2-0.1-1-0.1-2.3
		c-0.1-1.3-0.1-2.2-0.1-2.7v-11h2.1V357z"/>
	<path class="st2" d="M593.5,357l-2.4-6.1h-7.7l-2.4,6.1h-2.2l7.6-19.2h1.9l7.5,19.2H593.5z M590.4,348.9l-2.2-5.9
		c-0.3-0.8-0.6-1.7-0.9-2.8c-0.2,0.8-0.5,1.8-0.8,2.8l-2.2,5.9H590.4z"/>
	<path class="st2" d="M604.4,357h-2.2v-17.1h-6.1v-2h14.3v2h-6.1V357z"/>
	<path class="st2" d="M613.4,357v-19.1h2.2V357H613.4z"/>
	<path class="st2" d="M637.5,347.4c0,3.1-0.8,5.5-2.3,7.2c-1.5,1.8-3.7,2.6-6.5,2.6c-2.8,0-5-0.9-6.5-2.6c-1.5-1.7-2.3-4.2-2.3-7.3
		c0-3.1,0.8-5.5,2.3-7.2c1.5-1.7,3.7-2.6,6.5-2.6c2.7,0,4.9,0.9,6.4,2.6C636.8,342,637.5,344.4,637.5,347.4z M622.3,347.4
		c0,2.6,0.6,4.6,1.7,5.9c1.1,1.3,2.7,2,4.8,2c2.1,0,3.7-0.7,4.8-2c1.1-1.3,1.6-3.3,1.6-5.9c0-2.6-0.5-4.5-1.6-5.8s-2.7-2-4.8-2
		c-2.1,0-3.7,0.7-4.8,2C622.9,342.9,622.3,344.9,622.3,347.4z"/>
	<path class="st2" d="M656.8,357h-2.5l-10.4-16h-0.1c0.1,1.9,0.2,3.6,0.2,5.2V357h-2.1v-19.1h2.5l10.4,16h0.1c0-0.2-0.1-1-0.1-2.3
		c-0.1-1.3-0.1-2.2-0.1-2.7v-11h2.1V357z"/>
	<path class="st2" d="M677.4,339.6c-2.1,0-3.8,0.7-5,2.1c-1.2,1.4-1.8,3.3-1.8,5.7c0,2.5,0.6,4.4,1.8,5.8c1.2,1.4,2.8,2,5,2
		c1.3,0,2.9-0.2,4.6-0.7v1.9c-1.3,0.5-3,0.7-4.9,0.7c-2.8,0-5-0.9-6.5-2.6s-2.3-4.1-2.3-7.3c0-2,0.4-3.7,1.1-5.2
		c0.7-1.5,1.8-2.6,3.2-3.4s3-1.2,4.9-1.2c2,0,3.8,0.4,5.3,1.1l-0.9,1.9C680.3,340,678.8,339.6,677.4,339.6z"/>
	<path class="st2" d="M696.8,357h-10.7v-19.1h10.7v2h-8.4v6.2h7.9v2h-7.9v7h8.4V357z"/>
	<path class="st2" d="M716.1,357h-2.5l-10.4-16H703c0.1,1.9,0.2,3.6,0.2,5.2V357h-2.1v-19.1h2.5l10.4,16h0.1c0-0.2-0.1-1-0.1-2.3
		c-0.1-1.3-0.1-2.2-0.1-2.7v-11h2.1V357z"/>
	<path class="st2" d="M727.3,357H725v-17.1H719v-2h14.3v2h-6.1V357z"/>
	<path class="st2" d="M738.5,349.1v7.9h-2.2v-19.1h5.2c2.3,0,4.1,0.4,5.2,1.3s1.7,2.2,1.7,4.1c0,2.5-1.3,4.2-3.8,5.1l5.2,8.6h-2.6
		l-4.6-7.9H738.5z M738.5,347.2h3c1.6,0,2.7-0.3,3.5-0.9s1.1-1.6,1.1-2.8c0-1.3-0.4-2.2-1.1-2.7s-1.9-0.8-3.6-0.8h-2.9V347.2z"/>
	<path class="st2" d="M763.6,357h-10.7v-19.1h10.7v2h-8.4v6.2h7.9v2h-7.9v7h8.4V357z"/>
</g>
</svg>
