<svg width="332" height="131" viewBox="0 0 332 131" fill="none" xmlns="http://www.w3.org/2000/svg">
<path d="M115.8 88.3895L105.037 99.8267L96.4043 95.0873L96.3601 95.0517L82.8133 87.5918L57.9221 73.8187L42.1357 65.166L0 41.8962L10.7735 30.459L19.3787 35.1984L32.9629 42.6974L57.8881 56.4705H57.9221L73.6371 65.1589H73.6711L115.797 88.3859L115.8 88.3895ZM67.0677 3.99877C64.6071 1.42075 61.3784 0 57.9255 0H57.8881C54.4385 0 51.2065 1.42432 48.7459 3.99877L27.4538 26.6169L41.0379 34.1159L57.8881 16.1909L82.8167 42.6939L96.3635 35.2304L96.4009 35.1913L67.0677 3.99877ZM57.8881 114.084L32.9595 87.5812L19.3753 95.0802L48.7459 126.276C51.2065 128.854 54.4351 130.275 57.8881 130.275H57.9255C61.375 130.275 64.6071 128.851 67.0677 126.276L88.3258 103.658L74.7417 96.1591L57.8915 114.084H57.8881Z" fill="url(#paint0_linear_2764_91137)"/>
<path d="M170.83 105.637C187.609 105.637 199.332 96.935 199.332 82.654C199.332 67.1457 185.886 63.1292 172.554 59.0011C160.832 55.4308 156.349 52.8647 156.349 46.8399C156.349 40.9267 161.291 37.1333 168.991 37.1333C177.956 37.1333 183.012 41.8193 185.886 48.0672L197.033 41.8193C191.977 31.4432 182.208 24.6375 168.991 24.6375C155.43 24.6375 143.133 32.7821 143.133 47.1746C143.133 61.9019 155.315 66.3647 167.842 70.0465C179.794 73.6168 186.115 75.9598 186.115 82.8771C186.115 88.5672 181.633 93.1416 171.175 93.1416C160.257 93.1416 154.051 87.8978 151.178 79.9763L139.8 86.4474C144.052 98.0507 154.97 105.637 170.83 105.637Z" fill="black"/>
<path d="M254.698 48.4019V56.3234C250.331 50.5217 243.55 46.9515 234.586 46.9515C218.956 46.9515 205.969 59.6705 205.969 76.2945C205.969 92.8069 218.956 105.637 234.586 105.637C243.55 105.637 250.331 102.067 254.698 96.154V104.187H267.11V48.4019H254.698ZM236.539 94.1457C226.196 94.1457 218.381 86.6705 218.381 76.2945C218.381 65.9184 226.196 58.4432 236.539 58.4432C246.883 58.4432 254.698 65.9184 254.698 76.2945C254.698 86.6705 246.883 94.1457 236.539 94.1457Z" fill="black"/>
<path d="M318.239 48.4019L302.264 90.7986L286.174 48.4019H272.613L295.024 104.187H309.389L331.8 48.4019H318.239Z" fill="black"/>
<defs>
<linearGradient id="paint0_linear_2764_91137" x1="57.8983" y1="-2.01541" x2="57.8983" y2="135.381" gradientUnits="userSpaceOnUse">
<stop stop-color="#2E56BE"/>
<stop offset="1" stop-color="#1FDAED"/>
</linearGradient>
</defs>
</svg>
