<?xml version="1.0" encoding="UTF-8" standalone="no"?>
<!-- Generator: Adobe Illustrator 27.6.1, SVG Export Plug-In . SVG Version: 6.00 Build 0)  -->

<svg
   version="1.1"
   id="Layer_1"
   x="0px"
   y="0px"
   viewBox="0 0 213.72999 70.410002"
   xml:space="preserve"
   sodipodi:docname="sox.logo.svg"
   width="213.73"
   height="70.410004"
   inkscape:version="1.1.2 (0a00cf5339, 2022-02-04)"
   xmlns:inkscape="http://www.inkscape.org/namespaces/inkscape"
   xmlns:sodipodi="http://sodipodi.sourceforge.net/DTD/sodipodi-0.dtd"
   xmlns="http://www.w3.org/2000/svg"
   xmlns:svg="http://www.w3.org/2000/svg"><defs
   id="defs66" /><sodipodi:namedview
   id="namedview64"
   pagecolor="#ffffff"
   bordercolor="#666666"
   borderopacity="1.0"
   inkscape:pageshadow="2"
   inkscape:pageopacity="0.0"
   inkscape:pagecheckerboard="0"
   showgrid="false"
   inkscape:zoom="1.0369526"
   inkscape:cx="106.56225"
   inkscape:cy="34.234932"
   inkscape:window-width="2560"
   inkscape:window-height="1341"
   inkscape:window-x="0"
   inkscape:window-y="28"
   inkscape:window-maximized="1"
   inkscape:current-layer="Layer_1" />
<style
   type="text/css"
   id="style2">
	.Arched_x0020_Green{fill:url(#SVGID_1_);stroke:#FFFFFF;stroke-width:0.25;stroke-miterlimit:1;}
	.st0{fill:#83868F;}
	.st1{fill:#EC008C;}
</style>
<linearGradient
   id="SVGID_1_"
   gradientUnits="userSpaceOnUse"
   x1="0"
   y1="841.88959"
   x2="0.70709997"
   y2="841.1825">
	<stop
   offset="0"
   style="stop-color:#28B45F"
   id="stop4" />
	<stop
   offset="0.9831"
   style="stop-color:#183418"
   id="stop6" />
</linearGradient>
<g
   id="g61"
   transform="translate(-190.78,-386.89)">
	<g
   id="g19">
		<path
   class="st0"
   d="m 265.58,401.68 c -7.87,-3.5 -12.56,-4.85 -17.17,-4.85 -4.85,0 -7.95,1.75 -7.95,4.45 0,8.19 27.59,5.88 27.59,24.81 0,10.41 -8.75,16.46 -20.83,16.46 -9.46,0 -14.15,-2.47 -19.56,-5.25 v -11.69 c 7.79,5.17 12.56,7 18.53,7 5.17,0 7.95,-1.83 7.95,-5.01 0,-8.91 -27.59,-5.65 -27.59,-25.12 0,-9.38 8.11,-15.59 20.67,-15.59 6.04,0 11.53,1.27 18.37,4.22 v 10.57 z"
   id="path9" />
		<path
   class="st0"
   d="m 303.62,442.59 c -19.88,0 -31.09,-13.99 -31.09,-27.83 0,-13.12 10.65,-27.83 31.09,-27.83 20.43,0 31.01,14.79 31.01,27.83 -0.01,13.91 -11.54,27.83 -31.01,27.83 z m 0,-44.37 c -10.34,0 -17.18,6.6 -17.18,16.54 0,9.94 6.84,16.54 17.18,16.54 10.25,0 17.09,-6.6 17.09,-16.54 0,-9.94 -6.84,-16.54 -17.09,-16.54 z"
   id="path11" />
		<polygon
   class="st1"
   points="380.75,387.65 353.95,419.83 364.75,432.8 402.35,387.65 "
   id="polygon13" />
		<polygon
   class="st1"
   points="346.59,454.61 362.44,435.57 351.64,422.61 324.98,454.61 "
   id="polygon15" />
		<polygon
   class="st0"
   points="404.51,454.61 382.91,454.61 327.14,387.65 348.74,387.65 "
   id="polygon17" />
	</g>
	<g
   id="g59">
		<path
   d="m 191.14,453.02 c 0.49,0.29 1.25,0.54 2.03,0.54 0.97,0 1.52,-0.46 1.52,-1.15 0,-0.64 -0.42,-1.01 -1.49,-1.4 -1.4,-0.5 -2.28,-1.24 -2.28,-2.45 0,-1.38 1.15,-2.42 2.98,-2.42 0.91,0 1.57,0.2 2.01,0.42 l -0.36,1.24 c -0.31,-0.16 -0.9,-0.4 -1.69,-0.4 -0.97,0 -1.39,0.51 -1.39,1.01 0,0.65 0.49,0.95 1.61,1.39 1.46,0.55 2.16,1.29 2.16,2.5 0,1.36 -1.02,2.53 -3.18,2.53 -0.9,0 -1.82,-0.25 -2.28,-0.54 z"
   id="path21" />
		<path
   d="m 198.79,452.08 c 0.04,1.1 0.89,1.57 1.87,1.57 0.71,0 1.21,-0.11 1.69,-0.27 l 0.22,1.05 c -0.52,0.22 -1.25,0.39 -2.12,0.39 -1.97,0 -3.13,-1.21 -3.13,-3.07 0,-1.69 1.02,-3.27 2.97,-3.27 1.97,0 2.62,1.62 2.62,2.96 0,0.29 -0.02,0.51 -0.05,0.65 h -4.07 z m 2.67,-1.07 c 0.01,-0.56 -0.24,-1.49 -1.26,-1.49 -0.95,0 -1.35,0.86 -1.41,1.49 z"
   id="path23" />
		<path
   d="m 204.19,450.57 c 0,-0.82 -0.01,-1.42 -0.05,-1.96 h 1.32 l 0.06,1.15 h 0.04 c 0.3,-0.85 1.01,-1.29 1.67,-1.29 0.15,0 0.24,0.01 0.36,0.04 v 1.44 c -0.14,-0.02 -0.27,-0.04 -0.46,-0.04 -0.72,0 -1.24,0.46 -1.37,1.16 -0.02,0.14 -0.04,0.3 -0.04,0.46 v 3.16 h -1.54 v -4.12 z"
   id="path25" />
		<path
   d="m 208.68,445.83 h 1.54 v 3.62 h 0.02 c 0.37,-0.59 1.04,-0.97 1.95,-0.97 1.49,0 2.55,1.24 2.53,3.08 0,2.18 -1.39,3.27 -2.76,3.27 -0.79,0 -1.49,-0.3 -1.92,-1.05 h -0.02 l -0.07,0.91 h -1.31 c 0.02,-0.41 0.05,-1.09 0.05,-1.71 v -7.15 z m 1.54,6.35 c 0,0.12 0.01,0.25 0.04,0.36 0.16,0.62 0.7,1.07 1.36,1.07 0.96,0 1.55,-0.76 1.55,-2 0,-1.07 -0.51,-1.95 -1.54,-1.95 -0.62,0 -1.2,0.45 -1.36,1.12 -0.03,0.11 -0.05,0.25 -0.05,0.4 z"
   id="path27" />
		<path
   d="m 217.67,446.91 c 0,0.45 -0.34,0.82 -0.87,0.82 -0.51,0 -0.85,-0.38 -0.85,-0.82 0,-0.47 0.35,-0.84 0.86,-0.84 0.52,0.01 0.84,0.37 0.86,0.84 z m -1.64,7.78 v -6.08 h 1.54 v 6.08 z"
   id="path29" />
		<path
   d="m 223.99,453.23 c 0,0.55 0.02,1.09 0.1,1.46 h -1.39 l -0.11,-0.67 h -0.04 c -0.36,0.47 -1,0.81 -1.8,0.81 -1.22,0 -1.91,-0.89 -1.91,-1.81 0,-1.52 1.36,-2.31 3.61,-2.3 v -0.1 c 0,-0.4 -0.16,-1.06 -1.24,-1.06 -0.6,0 -1.22,0.19 -1.64,0.45 l -0.3,-1 c 0.45,-0.28 1.24,-0.54 2.2,-0.54 1.95,0 2.51,1.24 2.51,2.57 v 2.19 z m -1.49,-1.51 c -1.09,-0.01 -2.12,0.21 -2.12,1.14 0,0.6 0.39,0.87 0.87,0.87 0.62,0 1.06,-0.4 1.21,-0.84 0.04,-0.11 0.04,-0.22 0.04,-0.34 z"
   id="path31" />
		<path
   d="m 225.66,450.42 c 0,-0.7 -0.03,-1.29 -0.05,-1.81 h 1.34 l 0.07,0.91 h 0.04 c 0.27,-0.47 0.94,-1.05 1.95,-1.05 1.06,0 2.16,0.69 2.16,2.61 v 3.61 h -1.54 v -3.43 c 0,-0.87 -0.32,-1.54 -1.16,-1.54 -0.61,0 -1.04,0.44 -1.2,0.9 -0.05,0.12 -0.08,0.31 -0.08,0.49 v 3.58 h -1.54 v -4.27 z"
   id="path33" />
		<path
   d="m 243.01,450.4 c 0,2.82 -1.71,4.43 -4.02,4.43 -2.38,0 -3.88,-1.82 -3.88,-4.28 0,-2.6 1.64,-4.42 4.01,-4.42 2.44,0 3.89,1.86 3.89,4.27 z m -6.28,0.11 c 0,1.72 0.86,3.08 2.33,3.08 1.49,0 2.32,-1.38 2.32,-3.15 0,-1.58 -0.79,-3.08 -2.32,-3.08 -1.52,0 -2.33,1.41 -2.33,3.15 z"
   id="path35" />
		<path
   d="m 244.35,450.63 c 0,-0.8 -0.02,-1.45 -0.05,-2.02 h 1.35 l 0.07,0.94 h 0.02 c 0.45,-0.69 1.16,-1.07 2.08,-1.07 1.4,0 2.56,1.2 2.56,3.1 0,2.2 -1.39,3.26 -2.77,3.26 -0.76,0 -1.4,-0.33 -1.71,-0.81 h -0.02 v 3.15 h -1.54 v -6.55 z m 1.54,1.51 c 0,0.15 0.01,0.29 0.04,0.42 0.16,0.62 0.7,1.07 1.36,1.07 0.97,0 1.55,-0.81 1.55,-2.01 0,-1.07 -0.52,-1.95 -1.51,-1.95 -0.64,0 -1.22,0.46 -1.39,1.14 -0.03,0.12 -0.05,0.26 -0.05,0.39 z"
   id="path37" />
		<path
   d="m 252.79,452.08 c 0.04,1.1 0.89,1.57 1.87,1.57 0.71,0 1.21,-0.11 1.69,-0.27 l 0.22,1.05 c -0.52,0.22 -1.25,0.39 -2.12,0.39 -1.97,0 -3.13,-1.21 -3.13,-3.07 0,-1.69 1.02,-3.27 2.97,-3.27 1.97,0 2.62,1.62 2.62,2.96 0,0.29 -0.02,0.51 -0.05,0.65 h -4.07 z m 2.67,-1.07 c 0.01,-0.56 -0.24,-1.49 -1.26,-1.49 -0.95,0 -1.35,0.86 -1.41,1.49 z"
   id="path39" />
		<path
   d="m 258.19,450.42 c 0,-0.7 -0.02,-1.29 -0.05,-1.81 h 1.34 l 0.07,0.91 h 0.04 c 0.27,-0.47 0.94,-1.05 1.95,-1.05 1.06,0 2.16,0.69 2.16,2.61 v 3.61 h -1.54 v -3.43 c 0,-0.87 -0.32,-1.54 -1.16,-1.54 -0.61,0 -1.04,0.44 -1.2,0.9 -0.05,0.12 -0.08,0.31 -0.08,0.49 v 3.58 h -1.54 v -4.27 z"
   id="path41" />
		<path
   d="m 269.1,452.08 c 0.04,1.1 0.89,1.57 1.87,1.57 0.71,0 1.21,-0.11 1.68,-0.27 l 0.23,1.05 c -0.52,0.22 -1.25,0.39 -2.12,0.39 -1.97,0 -3.13,-1.21 -3.13,-3.07 0,-1.69 1.02,-3.27 2.97,-3.27 1.97,0 2.62,1.62 2.62,2.96 0,0.29 -0.02,0.51 -0.05,0.65 h -4.07 z m 2.67,-1.07 c 0.01,-0.56 -0.24,-1.49 -1.26,-1.49 -0.95,0 -1.35,0.86 -1.41,1.49 z"
   id="path43" />
		<path
   d="m 279.05,454.69 -0.9,-1.67 c -0.36,-0.65 -0.6,-1.1 -0.85,-1.58 h -0.02 c -0.2,0.49 -0.42,0.94 -0.76,1.58 l -0.84,1.67 h -1.76 l 2.5,-4.26 -2.41,-4.16 h 1.77 l 0.91,1.74 c 0.27,0.52 0.47,0.94 0.69,1.41 h 0.04 c 0.22,-0.52 0.4,-0.9 0.66,-1.41 l 0.9,-1.74 h 1.76 l -2.46,4.11 2.56,4.31 z"
   id="path45" />
		<path
   d="m 286.23,454.5 c -0.32,0.15 -0.96,0.31 -1.72,0.31 -1.9,0 -3.13,-1.22 -3.13,-3.11 0,-1.82 1.25,-3.23 3.38,-3.23 0.56,0 1.14,0.12 1.49,0.27 l -0.27,1.16 c -0.25,-0.12 -0.61,-0.24 -1.16,-0.24 -1.17,0 -1.87,0.86 -1.86,1.97 0,1.25 0.81,1.96 1.86,1.96 0.52,0 0.91,-0.11 1.21,-0.24 z"
   id="path47" />
		<path
   d="m 287.41,445.83 h 1.54 v 3.61 h 0.02 c 0.19,-0.29 0.45,-0.52 0.76,-0.69 0.31,-0.17 0.67,-0.27 1.06,-0.27 1.04,0 2.12,0.69 2.12,2.63 v 3.58 h -1.54 v -3.42 c 0,-0.87 -0.32,-1.55 -1.17,-1.55 -0.6,0 -1.02,0.4 -1.2,0.86 -0.05,0.14 -0.06,0.3 -0.06,0.46 v 3.64 h -1.54 v -8.85 z"
   id="path49" />
		<path
   d="m 299.32,453.23 c 0,0.55 0.02,1.09 0.1,1.46 h -1.39 l -0.11,-0.67 h -0.04 c -0.36,0.47 -1,0.81 -1.8,0.81 -1.22,0 -1.91,-0.89 -1.91,-1.81 0,-1.52 1.36,-2.31 3.61,-2.3 v -0.1 c 0,-0.4 -0.16,-1.06 -1.24,-1.06 -0.6,0 -1.22,0.19 -1.64,0.45 l -0.3,-1 c 0.45,-0.28 1.24,-0.54 2.2,-0.54 1.95,0 2.51,1.24 2.51,2.57 v 2.19 z m -1.5,-1.51 c -1.09,-0.01 -2.12,0.21 -2.12,1.14 0,0.6 0.39,0.87 0.87,0.87 0.62,0 1.06,-0.4 1.21,-0.84 0.04,-0.11 0.04,-0.22 0.04,-0.34 z"
   id="path51" />
		<path
   d="m 300.99,450.42 c 0,-0.7 -0.02,-1.29 -0.05,-1.81 h 1.34 l 0.07,0.91 h 0.04 c 0.28,-0.47 0.94,-1.05 1.95,-1.05 1.06,0 2.16,0.69 2.16,2.61 v 3.61 h -1.54 v -3.43 c 0,-0.87 -0.33,-1.54 -1.16,-1.54 -0.61,0 -1.04,0.44 -1.2,0.9 -0.05,0.12 -0.08,0.31 -0.08,0.49 v 3.58 h -1.54 v -4.27 z"
   id="path53" />
		<path
   d="m 313.68,453.8 c 0,1.27 -0.26,2.18 -0.9,2.76 -0.62,0.56 -1.51,0.74 -2.35,0.74 -0.77,0 -1.6,-0.17 -2.12,-0.49 l 0.34,-1.16 c 0.39,0.22 1.04,0.46 1.77,0.46 1,0 1.75,-0.52 1.75,-1.83 v -0.52 h -0.02 c -0.35,0.54 -0.96,0.9 -1.77,0.9 -1.51,0 -2.58,-1.25 -2.58,-2.97 0,-2 1.3,-3.21 2.76,-3.21 0.94,0 1.47,0.45 1.76,0.95 h 0.02 l 0.06,-0.81 h 1.34 c -0.03,0.41 -0.05,0.91 -0.05,1.75 v 3.43 z m -1.54,-2.75 c 0,-0.15 -0.01,-0.29 -0.05,-0.41 -0.16,-0.56 -0.6,-0.99 -1.25,-0.99 -0.86,0 -1.5,0.75 -1.5,1.99 0,1.04 0.52,1.87 1.49,1.87 0.57,0 1.07,-0.38 1.25,-0.94 0.05,-0.15 0.06,-0.36 0.06,-0.54 z"
   id="path55" />
		<path
   d="m 316.46,452.08 c 0.04,1.1 0.89,1.57 1.87,1.57 0.71,0 1.21,-0.11 1.68,-0.27 l 0.22,1.05 c -0.52,0.22 -1.25,0.39 -2.12,0.39 -1.97,0 -3.13,-1.21 -3.13,-3.07 0,-1.69 1.02,-3.27 2.97,-3.27 1.97,0 2.62,1.62 2.62,2.96 0,0.29 -0.02,0.51 -0.05,0.65 h -4.06 z m 2.67,-1.07 c 0.01,-0.56 -0.24,-1.49 -1.26,-1.49 -0.95,0 -1.35,0.86 -1.41,1.49 z"
   id="path57" />
	</g>
</g>
</svg>
