<?xml version="1.0" encoding="UTF-8" standalone="no"?>
<svg
   xmlns:dc="http://purl.org/dc/elements/1.1/"
   xmlns:cc="http://creativecommons.org/ns#"
   xmlns:rdf="http://www.w3.org/1999/02/22-rdf-syntax-ns#"
   xmlns:svg="http://www.w3.org/2000/svg"
   xmlns="http://www.w3.org/2000/svg"
   xmlns:xlink="http://www.w3.org/1999/xlink"
   xmlns:sodipodi="http://sodipodi.sourceforge.net/DTD/sodipodi-0.dtd"
   xmlns:inkscape="http://www.inkscape.org/namespaces/inkscape"
   height="234.084"
   width="470.306"
   version="1.1"
   id="svg16735"
   sodipodi:docname="anycast.worldmap.svg"
   inkscape:version="0.92.4 (5da689c313, 2019-01-14)">
  <metadata
     id="metadata16741">
    <rdf:RDF>
      <cc:Work
         rdf:about="">
        <dc:format>image/svg+xml</dc:format>
        <dc:type
           rdf:resource="http://purl.org/dc/dcmitype/StillImage" />
        <dc:title></dc:title>
      </cc:Work>
    </rdf:RDF>
  </metadata>
  <defs
     id="defs16739" />
  <sodipodi:namedview
     pagecolor="#ffffff"
     bordercolor="#666666"
     borderopacity="1"
     objecttolerance="10"
     gridtolerance="10"
     guidetolerance="10"
     inkscape:pageopacity="0"
     inkscape:pageshadow="2"
     inkscape:window-width="2560"
     inkscape:window-height="1365"
     id="namedview16737"
     showgrid="false"
     inkscape:zoom="3.552879"
     inkscape:cx="258.76458"
     inkscape:cy="129.04076"
     inkscape:window-x="0"
     inkscape:window-y="38"
     inkscape:window-maximized="1"
     inkscape:current-layer="a"
     inkscape:snap-to-guides="false"
     inkscape:snap-grids="false"
     fit-margin-top="0"
     fit-margin-left="0"
     fit-margin-right="0"
     fit-margin-bottom="0" />
  <g
     id="g16733"
     style="stroke:#000000;stroke-width:0.25;stroke-linejoin:bevel"
     transform="translate(-17.394,-11.871)">
    <use
       xlink:href="#a"
       id="use16726"
       style="stroke-width:1.5"
       x="0"
       y="0"
       width="100%"
       height="100%" />
    <g
       id="a"
       style="fill:#bcbec0">
      <path
         style="fill:#ffc107;fill-opacity:1;stroke:none"
         d="M 155.3457 0 L 132.31641 1.7070312 L 132.31641 2.9511719 L 140.08594 2.7890625 L 138.99609 4.2402344 L 130.94531 4.4003906 L 131.99609 6.2539062 L 128.52539 5.6894531 L 129.89648 7.4609375 L 123.93555 7.4609375 L 124.82617 8.3457031 L 131.3457 8.3457031 L 132.39648 9.2324219 L 141.89648 4.8027344 L 149.54688 3.2734375 L 155.3457 0 z M 189.47656 0.40429688 L 176.19531 1.9492188 L 160.11523 1.9492188 L 150.8457 5.171875 L 143.43555 7.4277344 L 143.43555 9.6875 L 154.7168 9.8476562 L 157.60547 14.835938 L 157.60547 19.345703 L 152.19531 22.417969 L 152.35547 28.537109 L 155.75586 31.974609 L 159.77539 31.974609 L 165.91602 25.486328 L 174.58594 22.929688 L 177.83594 20.439453 L 184.39648 20.035156 L 188.98633 18.679688 L 197.63672 4.9296875 L 202.9668 3.8398438 L 204.8457 1.9492188 L 189.47656 0.40429688 z M 126.33594 2.5234375 L 121.36523 4.6171875 L 125.65625 5.4277344 L 128.11523 3.8535156 L 126.33594 2.5234375 z M 318.76562 8.2871094 L 301.72656 15.908203 L 305.45508 20.527344 L 302.23633 23.855469 L 299.32617 14.34375 L 294.18555 13.9375 L 296.65625 19.560547 L 276.78516 20.097656 L 258.2168 27.720703 L 255.76562 23.052734 L 262.82617 23.318359 L 266.26562 21.599609 L 252.73633 17.285156 L 249.87891 17.431641 L 249.87695 17.429688 L 246.95508 17.576172 L 246.95508 17.582031 L 241.22656 17.873047 L 221.57617 31.474609 L 223.54688 36.095703 L 229.45508 35.130859 L 229.86523 35.601562 L 233.66602 39.974609 L 239.86523 34.484375 L 236.9668 30.884766 L 243.49609 23.748047 L 244.78516 23.748047 L 243.00586 19.427734 L 243.01562 19.427734 L 244.78516 23.748047 L 245.82617 23.748047 L 242.68555 30.861328 L 246.35547 32.712891 L 251.92969 32.712891 L 251.92578 32.716797 L 251.16602 33.427734 L 251.16797 33.435547 L 250.28516 34.261719 L 245.68555 34.365234 L 245.30664 35.332031 L 246.66602 36.355469 L 246.95508 36.572266 L 246.63672 38.023438 L 243.4668 36.572266 L 243.47656 38.455078 L 243.48633 40.605469 L 245.89648 41.408203 L 246.55664 42.773438 L 247.07617 44.228516 L 247.87695 46.433594 L 255.08594 47.582031 L 259.55664 46.607422 L 259.56055 46.609375 L 255.08594 47.585938 L 247.87695 46.435547 L 248.32617 47.6875 L 245.74609 50.904297 L 245.74609 52.724609 L 246.90625 52.724609 L 246.90234 52.728516 L 245.69531 52.728516 L 245.69531 51.966797 L 245.69531 50.908203 L 239.49609 50.154297 L 239.23633 50.052734 L 234.87695 48.335938 L 230.97852 49.542969 L 230.97656 49.539062 L 234.87695 48.332031 L 234.45508 42.771484 L 228.52539 42.703125 L 228.25586 41.648438 L 228.14648 41.203125 L 228.82617 37.380859 L 226.95508 37.355469 L 225.62695 40.353516 L 226.17578 41.648438 L 226.5957 42.664062 L 223.47656 44.533203 L 223.28516 48.207031 L 223.29688 47.943359 L 223.47656 44.533203 L 223.47656 44.527344 L 220.36523 46.388672 L 218.53516 47.482422 L 210.85547 52.085938 L 208.03516 52.085938 L 208.03516 53.265625 L 211.35547 55.060547 L 211.79688 60.943359 L 216.7168 64.089844 L 218.23633 62.125 L 225.43555 62.177734 L 225.64648 59.171875 L 225.83594 59.171875 L 228.43555 59.171875 L 236.43555 67.154297 L 236.8457 70.552734 L 238.31641 69.693359 L 238.77539 67.251953 L 240.5957 66.886719 L 230.83594 58.439453 L 233.60547 58.273438 L 234.01562 58.25 L 236.11523 57.150391 L 237.0625 55.527344 L 237.06445 55.527344 L 236.11523 57.154297 L 234.01562 58.253906 L 234.74609 58.208984 L 238.13672 62.128906 L 238.83594 62.302734 L 238.83594 62.300781 L 236.92578 58.208984 L 236.92773 58.208984 L 238.83594 62.300781 L 239.94531 62.574219 L 242.07617 60.943359 L 242.47656 61.5 L 242.07617 60.947266 L 239.94531 62.578125 L 241.27539 62.90625 L 242.17578 66.787109 L 242.42578 67.080078 L 242.42773 67.080078 L 243.8457 68.716797 L 246.58594 69.482422 L 244.91602 70.191406 L 247.12695 72.96875 L 248.51562 70.769531 L 246.9668 67.386719 L 250.04688 65.869141 L 252.58594 65.869141 L 255.65625 65.869141 L 254.41602 63.199219 L 255.375 60.251953 L 255.37695 60.251953 L 255.37695 60.248047 L 256.17578 57.775391 L 254.69531 57.15625 L 256.38672 54.507812 L 255.44531 52.724609 L 255.49609 52.724609 L 256.43555 54.507812 L 254.74609 57.15625 L 256.22656 57.775391 L 256.62695 56.546875 L 262.40625 56.546875 L 261.12695 57.875 L 262.90625 58.882812 L 265.30664 58.693359 L 263.02539 55.78125 L 269.00586 54.511719 L 269.00586 54.513672 L 269.72656 56.230469 L 267.95508 56.714844 L 268.26562 59.537109 L 274.67578 61.783203 L 274.69531 61.779297 L 274.69531 64.785156 L 278.9668 65.873047 L 280.3457 68.839844 L 280.3457 70.771484 L 288.29688 84.261719 L 290.65625 84.488281 L 296.13672 90.205078 L 306.22656 93.214844 L 309.02539 93.214844 L 317.82617 93.214844 L 320.14648 95.853516 L 320.47656 96.244141 L 323.66602 97.253906 L 322.17578 98.783203 L 323.58594 100.61328 L 326.11523 100.91406 L 326.56641 98.814453 L 327.56641 98.824219 L 335.69531 122.20312 L 340.85547 119.0332 L 341.65625 109.63477 L 353.42578 98.263672 L 354.67578 97.054688 L 360.25586 101.73438 L 360.61523 99.234375 L 361.8457 90.744141 L 360.25586 101.73438 L 362.76562 103.83398 L 363.72656 108.85352 L 365.49609 109.38477 L 366.76562 107.79492 L 369.12695 110.45312 L 370.43555 115.31445 L 370.12695 120.33398 L 370.00586 122.31445 L 373.54688 125.31445 L 373.88672 126.41406 L 375.26562 130.89453 L 380.94531 135.73438 L 381.38672 134.01367 L 376.02539 126.09375 L 372.58594 121.02344 L 373.38672 113.18359 L 377.25586 117.01367 L 379.18555 118.93359 L 381.35547 118.63477 L 381.43555 122.09375 L 387.61523 118.01367 L 387.40625 111.94336 L 380.95508 105.13477 L 381.27539 101.4043 L 383.57422 100.10547 L 383.57617 100.10742 L 385.68555 98.90625 L 385.76562 100.95703 L 398.24609 96.496094 L 402.32617 87.365234 L 395.04688 75.384766 L 398.78516 71.306641 L 394.48633 71.306641 L 393.10547 72.199219 L 390.40625 67.763672 L 393.8457 64.757812 L 396.20508 69.261719 L 399.51562 66.984375 L 401.37695 70.513672 L 403.82617 71.197266 L 406.40625 76.78125 L 409.52539 76.566406 L 410.05664 72.96875 L 405.73633 69.433594 L 403.82617 67.869141 L 406.29688 67.548828 L 405.86523 62.617188 L 410.45508 61.810547 L 412.93555 58.111328 L 412.93555 51.238281 L 405.8457 43.185547 L 398.97656 43.078125 L 400.15625 34.597656 L 414.32617 34.703125 L 415.86523 29.890625 L 421.8457 32.152344 L 421.86523 29.933594 L 423.3457 30.087891 L 425.92578 32.556641 L 423.43555 34.251953 L 423.13672 39.320312 L 433.22656 48.876953 L 433.22656 39.642578 L 427.53516 34.166016 L 441.01562 29.898438 L 441.18555 28.521484 L 434.40625 26.677734 L 437.04688 24.619141 L 443.10547 25.871094 L 447.2168 25.953125 L 443.91602 22.412109 L 422.75586 18.220703 L 389.95508 17.285156 L 388.10547 14.773438 L 376.66602 12.902344 L 373.44531 15.802734 L 364.18555 15.802734 L 360.32617 12.902344 L 339.38672 12.902344 L 338.0957 8.2871094 L 318.76562 8.2871094 z M 234.87695 48.332031 L 239.24609 50.050781 L 239.49609 50.152344 L 245.69531 50.904297 L 248.27539 47.6875 L 247.82617 46.435547 L 247.02539 44.230469 L 246.50586 42.777344 L 246.51562 42.779297 L 245.85547 41.416016 L 243.44531 40.613281 L 243.45508 42.214844 L 243.44531 42.212891 L 240.22656 42.318359 L 239.49609 41.648438 L 234.87695 42.775391 L 234.4668 42.771484 L 234.87695 48.332031 z M 119.67578 8.3457031 L 116.93555 10.681641 L 128.04688 11.556641 L 130.94531 9.5136719 L 122.49609 9.5136719 L 119.67578 8.3457031 z M 83.816406 11.363281 L 74.285156 13.789062 L 76.056641 15.867188 L 86.136719 12.4375 L 83.816406 11.363281 z M 108.68555 11.958984 L 102.15625 14.078125 L 103.91602 15.863281 L 107.69531 14.601562 L 108.68555 11.958984 z M 113.95508 11.958984 L 109.36523 13.017578 L 109.8457 14.707031 L 114.99609 13.339844 L 113.95508 11.958984 z M 118.54688 12.53125 L 113.87695 17.496094 L 125.22656 16.880859 L 132.15625 23.080078 L 127.49609 23.001953 L 125.14648 24.925781 L 119.85547 24.925781 L 119.85547 26.4375 L 125.22656 26.4375 L 129.77539 30.201172 L 131.01562 29.658203 L 129.93555 27.269531 L 133.06641 28.759766 L 134.08594 28.316406 L 134.08594 23.644531 L 137.68555 24.925781 L 139.75586 23.544922 L 138.58594 21.359375 L 136.50586 20.601562 L 136.41602 17.298828 L 124.87695 12.585938 L 123.15625 12.566406 L 119.14648 15.861328 L 120.48633 12.546875 L 118.54688 12.53125 z M 87.435547 13.064453 L 82.005859 14.910156 L 85.205078 16.259766 L 80.212891 17.53125 L 86.416016 19.947266 L 90.685547 18.09375 L 95.435547 19.222656 L 98.996094 18.404297 L 95.515625 16.798828 L 98.195312 13.337891 L 95.515625 13.337891 L 93.90625 15.419922 L 93.255859 13.337891 L 90.416016 14.439453 L 87.435547 13.064453 z M 109.05664 15.576172 L 105.01562 17.371094 L 106.06641 19.546875 L 100.66602 22.121094 L 91.246094 20.351562 L 86.265625 22.685547 L 74.175781 17.855469 L 51.105469 18.337891 L 51.113281 18.330078 L 51.105469 18.332031 L 47.455078 16.828125 L 28.345703 16.9375 L 20.615234 20.050781 L 20.615234 23.486328 L 11.919922 23.380859 L 10.269531 25.683594 L 17.609375 25.419922 L 8.1601562 28.962891 L 3.5957031 35.148438 L 7.5175781 35.082031 L 0 40.021484 L 2.7480469 40.236328 L 17.138672 33.365234 L 33.748047 32.785156 L 38.773438 37.810547 L 38.746094 37.841797 L 36.814453 46.6875 L 40.277344 49.828125 L 40.277344 51.519531 L 79.097656 51.519531 L 83.65625 53.599609 L 91.376953 51.960938 L 92.347656 55.384766 L 93.90625 56.535156 L 96.527344 56.351562 L 97.556641 59.427734 L 100.88672 59.427734 L 103.19531 57.845703 L 110.65625 57.845703 L 113.87695 55.054688 L 116.77539 55.054688 L 116.75781 55.107422 L 113.92383 55.107422 L 113.92578 55.101562 L 110.70508 57.894531 L 103.24609 57.894531 L 100.93555 59.476562 L 102.7168 59.476562 L 100.23633 61.167969 L 98.466797 61.167969 L 100.93555 59.476562 L 96.066406 59.476562 L 93.955078 61.115234 L 91.806641 61.330078 L 92.236328 57.626953 L 90.576172 57.626953 L 88.636719 58.914062 L 85.035156 64.230469 L 82.916016 64.230469 L 86.996094 57.626953 L 91.806641 56.597656 L 91.535156 55.693359 L 88.365234 55.585938 L 86.865234 54.673828 L 84.986328 55.585938 L 82.785156 55.585938 L 83.685547 53.640625 L 79.134766 51.558594 L 40.324219 51.558594 L 27.544922 65.039062 L 27.544922 75.398438 L 32.210938 80.066406 L 32.220703 80.068359 L 32.242188 80.089844 L 32.9375 87.4375 L 37.957031 96.9375 L 40.013672 95.347656 L 36.054688 86.90625 L 36.054688 82.154297 L 38.390625 82.154297 L 38.480469 86.574219 L 45.980469 104.19336 L 58.210938 109.29492 L 61.263672 108.48438 L 63.904297 111.17773 L 63.900391 111.18359 L 63.917969 111.19141 L 63.949219 111.22461 L 63.957031 111.21094 L 67.890625 113.19336 L 70.59375 108.31445 L 73.142578 103.5 L 73.259766 103.41406 L 73.392578 100.00391 L 69.957031 99.943359 L 67.226562 104.42383 L 59.705078 104.42773 L 56.048828 96.546875 L 59.083984 92.740234 L 59.085938 92.744141 L 66.144531 83.884766 L 82.923828 83.9375 L 84.033203 92.324219 L 86.693359 92.394531 L 86.763672 81.955078 L 113.92383 58.734375 L 115.77344 58.414062 L 115.79492 58.345703 L 120.87695 57.470703 L 117.49609 59.080078 L 117.81641 60.476562 L 126.99609 57.251953 L 122.51562 57.039062 L 120.42578 55.15625 L 122.49609 51.945312 L 121.48633 50.982422 L 114.99609 53.927734 L 114.99609 52.236328 L 121.20508 49.255859 L 131.15625 48.826172 L 138.63672 44.845703 L 138.67578 43.029297 L 133.22656 42.085938 L 132.56641 33.175781 L 125.43555 35.980469 L 125.48633 31.789062 L 122.04688 28.863281 L 117.37695 28.863281 L 104.74609 47.242188 L 101.68555 47.253906 L 101.74609 41.207031 L 90.865234 35.302734 L 101.74609 27.25 L 107.91602 26.123047 L 106.62695 24.216797 L 116.12695 23.169922 L 119.99609 19.142578 L 116.36523 18.740234 L 111.37695 22.042969 L 111.93555 19.224609 L 109.60547 18.982422 L 109.05664 15.576172 z M 67.890625 113.19336 L 70.712891 114.46484 L 71.4375 114.79492 L 73.974609 118.21484 L 73.964844 118.21484 L 76.857422 122.12305 L 77.900391 122.49414 L 82.212891 124.0332 L 83.257812 122.47461 L 85.728516 122.71484 L 86.447266 125.09375 L 87.408203 123.73438 L 87.333984 123.4668 L 87.414062 123.73438 L 86.453125 125.09375 L 87.193359 127.55469 L 86.494141 132.14453 L 84.404297 134.7832 L 84.40625 134.78516 L 81.34375 138.64453 L 80.974609 144.55469 L 84.517578 146.24805 L 84.513672 146.25391 L 80.958984 144.55469 L 80.845703 146.37305 L 91.644531 164.76367 L 100.97461 171.01367 L 102.54492 209.26367 L 106.67383 212.60352 L 106.86328 219.46484 L 114.02344 228.72461 L 116.34375 228.96484 L 111.20312 221.09375 L 111.04492 216.47461 L 107.58398 210.31445 L 103.75391 193.56445 L 105.57422 176.66406 L 105.58398 176.66406 L 103.76367 193.56445 L 107.59375 210.31445 L 111.05469 216.47461 L 111.21484 221.09375 L 116.35352 228.96484 L 118.22461 229.1543 L 117.25391 209.02344 L 128.1543 204.30469 L 123.21484 197.42383 L 129.09375 199.58398 L 131.45312 195.49414 L 131.44531 195.49023 L 136.24414 187.12305 L 137.37305 179.87305 L 149.0332 174.71484 L 151.20312 158.59375 L 156.23438 152.01367 L 156.23438 148.0332 L 148.00391 142.67383 L 139.95312 142.18359 L 140.16406 139.98438 L 136.44336 138.37305 L 132.72461 140.55469 L 133.93359 137.29492 L 131.46484 136.22461 L 127.95312 138.92383 L 130.50391 135.16406 L 128.25391 130.25391 L 126.96484 127.42383 L 124.22461 127.19336 L 119.44336 126.77344 L 114.3418 121.92188 L 114.34375 121.91406 L 112.69336 120.33398 L 106.14453 119.69336 L 102.49414 117.09375 L 94.033203 117.01367 L 92.314453 117.00391 L 88.724609 121.85352 L 86.925781 121.97266 L 86.417969 120.11328 L 82.544922 120.45312 L 81.177734 121.59375 L 79.367188 120.59375 L 79.365234 120.59375 L 78.339844 120.02344 L 78.308594 118.67383 L 78.318359 118.67383 L 78.103516 109.21484 L 70.070312 109.29492 L 68.746094 111.66406 L 67.890625 113.19336 z M 103.0957 17.498047 L 100.06641 18.804688 L 101.15625 20.212891 L 103.91602 18.804688 L 103.0957 17.498047 z M 197.39648 22.923828 L 194.24609 23.970703 L 190.4668 23.890625 L 189.66602 24.980469 L 187.51562 24.929688 L 187.51562 26.949219 L 195.10547 28.037109 L 199.64648 25.828125 L 199.64648 25.205078 L 197.39648 22.923828 z M 111.48633 24.927734 L 108.52539 27.335938 L 114.37695 27.953125 L 114.99609 26.439453 L 111.48633 24.927734 z M 207.89648 36.740234 L 207.89648 40.810547 L 210.18555 41.025391 L 210.22656 43.494141 L 208.53516 44.421875 L 210.02539 46.589844 L 207.00586 49.453125 L 210.99609 48.728516 L 215.05664 48.085938 L 215.31641 46.595703 L 216.14648 46.595703 L 216.32617 44.931641 L 213.69531 44.376953 L 210.40625 36.816406 L 207.89648 36.740234 z M 230.55664 39.152344 L 229.51562 39.578125 L 229.19531 41.222656 L 231.13672 41.203125 L 231.72656 40.310547 L 230.55664 39.152344 z M 204.06641 40.998047 L 201.08594 43.183594 L 201.08594 47.585938 L 202.77539 47.574219 L 202.77539 46.072266 L 205.99609 46.515625 L 205.75586 43.253906 L 207.00586 42.810547 L 207.00586 41.197266 L 204.06641 40.998047 z M 298.52539 43.289062 L 298.52539 47.777344 L 298.50586 47.777344 L 298.50586 43.292969 L 298.52539 43.289062 z M 380.07617 43.882812 L 380.10938 43.882812 L 381.81641 49.939453 L 381.79492 49.943359 L 380.07617 43.882812 z M 409.54688 44.792969 L 415.01562 51.556641 L 417.69531 56.550781 L 419.68555 56.550781 L 416.35547 51.826172 L 418.28516 51.826172 L 411.47656 44.847656 L 409.54688 44.792969 z M 352.42578 46.246094 L 352.43945 46.25 L 350.51562 50.587891 L 350.5 50.583984 L 352.42578 46.246094 z M 280.86523 47.789062 L 280.88672 47.789062 L 280.88672 53.589844 L 283.24609 56.542969 L 288.29688 54.501953 L 291.30664 56.542969 L 287.65625 58.3125 L 287.54688 60.943359 L 289.95508 62.945312 L 293.02539 62.097656 L 295.74609 64.367188 L 295.74609 64.369141 L 298.41602 63.318359 L 302.80664 63.318359 L 313.15625 71.601562 L 316.54688 72.507812 L 316.54688 72.509766 L 313.15625 71.603516 L 313.1543 71.603516 L 302.80664 63.322266 L 298.41602 63.322266 L 295.74609 64.373047 L 293.02539 62.103516 L 289.95508 62.951172 L 294.85547 67.009766 L 294.67578 71.296875 L 294.60547 73.029297 L 289.63672 73.027344 L 286.89648 68.191406 L 284.7168 64.351562 L 284.6875 64.34375 L 283.22656 61.783203 L 283.22656 56.554688 L 280.86523 53.601562 L 280.86523 47.789062 z M 135.66602 47.804688 L 129.93555 53.617188 L 130.03711 53.617188 L 129.98633 53.667969 L 139.4668 53.667969 L 137.49609 50.529297 L 137.47266 50.523438 L 137.44531 50.480469 L 135.7168 50.066406 L 135.7168 47.853516 L 135.66602 47.904297 L 135.66602 47.804688 z M 35.984375 48.144531 L 34.857422 49.111328 L 36.691406 51.509766 L 38.615234 51.509766 L 38.615234 50.292969 L 35.984375 48.144531 z M 343.35547 48.419922 L 343.36328 48.421875 L 338.04688 52.472656 L 330.53516 58.197266 L 330.53516 58.193359 L 338.04688 52.470703 L 338.04102 52.46875 L 343.35547 48.419922 z M 223.25195 48.832031 L 223.19531 49.912109 L 223.24609 48.835938 L 223.25195 48.832031 z M 225.08398 50.904297 L 225.08594 50.904297 L 224.82617 52.162109 L 225.08398 50.904297 z M 232.44922 51.476562 L 233.53516 52.921875 L 233.5332 52.921875 L 232.44922 51.476562 z M 238.85156 53.222656 L 238.85547 53.226562 L 236.37109 55.261719 L 236.36719 55.259766 L 238.19531 53.757812 L 238.85156 53.222656 z M 225.56641 53.970703 L 227.45508 53.970703 L 227.45508 53.972656 L 228.17383 56.138672 L 228.17188 56.138672 L 227.45508 53.972656 L 225.56641 53.972656 L 224.33789 54.539062 L 224.33789 54.535156 L 225.56641 53.970703 z M 384.39648 56.546875 L 377.91602 57.904297 L 375.48633 62.828125 L 377.90625 57.904297 L 384.39648 56.546875 z M 299.4668 57.507812 L 304.98633 61.292969 L 309.60547 60.40625 L 309.60547 60.408203 L 304.98633 61.294922 L 299.4668 57.509766 L 295.27539 58.474609 L 299.4668 57.507812 z M 419.64648 58.435547 L 419.77539 63.830078 L 421.06641 64.595703 L 421.98633 63.347656 L 424.92578 63.306641 L 426.17578 61.173828 L 419.64648 58.435547 z M 211.79688 60.947266 L 200.41602 61.029297 L 200.36523 63.201172 L 203.74609 63.767578 L 200.36523 63.203125 L 200.19531 69.591797 L 201.80664 72.435547 L 202.70508 72.503906 L 209.75586 73.029297 L 216.7168 64.09375 L 211.79688 60.947266 z M 246.79688 60.984375 L 248.55469 65.09375 L 247.52539 62.695312 L 243.8457 63.416016 L 243.36328 62.738281 L 243.8457 63.412109 L 247.52539 62.693359 L 246.79688 60.984375 z M 326.9668 61.771484 L 331.7832 64.003906 L 331.78516 64.007812 L 331.78516 64.009766 L 324.26562 66.802734 L 324.26562 66.800781 L 331.78516 64.007812 L 326.9668 61.773438 L 319.43555 62.101562 L 316.25 64.71875 L 316.24609 64.71875 L 319.43555 62.097656 L 326.9668 61.771484 z M 226.49609 62.125 L 226.49609 63.763672 L 227.41602 64.109375 L 227.82617 62.125 L 226.49609 62.125 z M 93.476562 62.509766 L 96.515625 62.509766 L 94.005859 64.228516 L 90.955078 64.228516 L 93.476562 62.509766 z M 274.64648 64.783203 L 257.40625 65.347656 L 255.92578 67.117188 L 252.5957 67.091797 L 255.33594 72.597656 L 267.92578 73.292969 L 280.29688 70.769531 L 280.29688 68.835938 L 278.91602 65.869141 L 274.64648 64.783203 z M 225.56641 64.861328 L 225.56641 68.835938 L 227.41602 68.835938 L 227.41602 65.398438 L 225.56641 64.861328 z M 422.16602 65.634766 L 423.28516 70.787109 L 419.27539 74.425781 L 413.86523 75.816406 L 413.38672 77.476562 L 419.85547 76.521484 L 420.35547 79.019531 L 421.82617 78.394531 L 421.98633 76.429688 L 426.32617 75.314453 L 426.0957 69.640625 L 424.12695 66.201172 L 422.16602 65.634766 z M 319.81641 66.597656 L 319.81641 66.599609 L 317.14453 67.365234 L 319.81641 66.597656 z M 218.32617 66.851562 L 216.14648 68.742188 L 218.32617 68.742188 L 218.32617 66.851562 z M 316.30078 67.607422 L 315.00586 67.980469 L 315.00586 67.978516 L 316.30078 67.607422 z M 231.8457 70.310547 L 231.8457 71.277344 L 233.29688 72.271484 L 235.7168 72.646484 L 235.7168 70.310547 L 231.8457 70.310547 z M 280.29688 70.779297 L 276.69531 71.515625 L 275.25586 77.166016 L 272.63672 78.730469 L 272.63672 78.728516 L 269.40625 80.652344 L 267.4668 79.300781 L 267.4668 79.296875 L 269.40625 80.648438 L 275.25586 77.160156 L 276.69531 71.507812 L 267.92578 73.294922 L 267.33594 76.044922 L 266.75586 78.792969 L 265.63867 82.923828 L 265.63672 82.921875 L 251.5957 81.013672 L 251.5957 81.015625 L 245.69531 80.216797 L 243.25586 83.867188 L 237.88672 82.794922 L 235.75586 80.212891 L 231.18555 79.115234 L 231.18164 79.119141 L 229.51562 78.722656 L 229.72656 72.921875 L 224.66602 72.773438 L 224.66602 72.777344 L 218.74609 72.605469 L 210.83594 75.632812 L 210.83594 75.626953 L 201.81641 76.566406 L 193.15625 87.835938 L 197.73633 87.832031 L 198.5957 87.832031 L 198.5957 87.835938 L 193.15625 87.835938 L 185.81641 97.394531 L 185.73633 99.703125 L 185.72656 99.703125 L 185.50586 106.07422 L 185.28516 112.27344 L 185.23633 113.71484 L 185.14648 116.08398 L 185.15625 116.08398 L 185.14648 116.19336 L 187.40625 118.63281 L 189.83594 116.08398 L 187.40625 118.63281 L 187.40625 118.63477 L 190.29688 121.75391 L 193.07227 124.73828 L 193.06641 124.74414 L 198.87695 131.01367 L 207.39648 128.55469 L 213.17578 126.88477 L 213.17578 126.88281 L 215.26562 126.2832 L 216.14648 126.0332 L 220.81641 126.71484 L 221.45508 129.56445 L 225.99609 129.56445 L 227.57617 129.56445 L 227.49609 133.20312 L 227.50586 133.20312 L 227.43555 135.85352 L 227.3457 140.18359 L 230.97656 145.0332 L 232.80664 147.47266 L 232.80664 147.47461 L 232.80859 147.47461 L 233.80664 148.80273 L 239.06641 148.76367 L 233.80664 148.80469 L 233.80664 160.5332 L 230.80664 165.47461 L 231.06641 168.69336 L 237.67578 187.32422 L 244.32617 187.32422 L 244.32617 187.35938 L 237.67578 187.35938 L 241.53516 197.92969 L 254.20508 197.92969 L 263.95508 186.64844 L 264.39648 183.59961 L 262.55664 183.62891 L 262.55664 183.59375 L 264.39648 183.56445 L 264.51562 182.67383 L 268.32617 180.01367 L 268.04688 172.00391 L 276.98633 164.67383 L 276.0957 156.31445 L 275.01562 144.26367 L 277.93555 140.85352 L 295.28516 120.67383 L 294.57617 117.13477 L 282.51562 118.92383 L 281.88672 117.84375 L 280.45508 115.38477 L 273.48633 103.41406 L 273.48633 103.41211 L 269.33594 96.273438 L 266.23633 98.042969 L 250.84375 98.042969 L 250.8457 98.033203 L 266.23633 98.033203 L 269.33594 96.263672 L 262.95508 85.304688 L 266.44531 88.148438 L 267.39648 85.923828 L 267.42578 85.841797 L 267.4668 85.748047 L 267.4668 85.753906 L 268.81445 85.914062 L 268.80664 85.917969 L 267.4668 85.755859 L 279.97656 107.49609 L 280.22656 108.30664 L 282.44531 115.54688 L 298.72656 108.20508 L 306.92578 98.046875 L 302.38672 94.005859 L 300.69531 92.505859 L 298.04688 95.486328 L 294.68555 94.826172 L 293.64648 94.138672 L 291.8457 92.951172 L 288.29688 87.150391 L 286.41602 84.091797 L 284.64648 84.091797 L 288.13672 84.070312 L 280.29688 70.779297 z M 293.64648 94.138672 L 294.53516 93.21875 L 292.97656 91.017578 L 292.28516 93.238281 L 293.64648 94.138672 z M 305.17578 72.087891 L 305.18555 72.089844 L 306.87305 74.820312 L 306.86523 74.824219 L 305.17578 72.087891 z M 233.0957 73.779297 L 233.07617 75.359375 L 235.51562 75.986328 L 235.52539 73.84375 L 233.0957 73.779297 z M 265.15625 74.707031 L 261.56641 76.037109 L 264.13672 76.681641 L 265.15625 74.707031 z M 418.9668 77.919922 L 416.3457 78.28125 L 417.83594 79.972656 L 418.9668 77.919922 z M 415.06641 78.724609 L 412.72656 79.019531 L 414.98633 82.509766 L 415.82617 79.851562 L 415.06641 78.724609 z M 210.83594 80.419922 L 210.83594 80.425781 L 198.5957 87.107422 L 198.5957 87.101562 L 210.83594 80.419922 z M 273.09375 80.652344 L 273.11523 80.740234 L 273.01562 80.689453 L 272.26758 81.003906 L 273.01562 80.6875 L 273.09375 80.652344 z M 337.57617 83.136719 L 354.37891 88.947266 L 351.95508 88.113281 L 350.98633 87.777344 L 337.57617 83.136719 z M 270.82617 84.974609 L 270.82617 84.976562 L 269.31641 85.679688 L 270.82617 84.974609 z M 285.63672 85.712891 L 285.64648 85.712891 L 286.74609 87.150391 L 285.63672 85.712891 z M 361.72461 86.800781 L 367.75586 89.396484 L 366.62695 92.453125 L 367.74609 89.394531 L 365.22656 88.314453 L 361.72461 86.800781 z M 198.5957 88.746094 L 215.13477 100.94531 L 205.91602 94.154297 L 198.5957 88.751953 L 198.5957 88.746094 z M 403.72656 93.107422 L 401.57617 96.167969 L 403.72656 98.177734 L 405.03516 94.476562 L 403.72656 93.107422 z M 81.259766 96.283203 L 79.568359 97.894531 L 84.515625 97.894531 L 88.505859 100.55469 L 86.986328 102.24414 L 93.90625 102.24414 L 85.636719 96.283203 L 81.259766 96.283203 z M 388.20508 102.52734 L 385.62695 103.09766 L 385.62695 104.61719 L 386.67578 105.88672 L 388.20508 103.97656 L 388.20508 102.52734 z M 94.673828 102.57422 L 95.664062 103.97461 L 93.894531 103.97461 L 93.894531 104.60352 L 97.714844 104.60352 L 97.714844 105.26367 L 99.34375 104.05469 L 101.94336 104.05469 L 102.58398 103.11328 L 97.714844 102.57422 L 94.673828 102.57422 z M 86.496094 104.09375 L 86.496094 105.30469 L 87.535156 106.19336 L 90.515625 106.19336 L 90.515625 105.14453 L 89.476562 104.09375 L 86.496094 104.09375 z M 104.8457 104.48438 L 104.23633 105.49414 L 105.90625 105.49414 L 106.51562 104.48438 L 104.8457 104.48438 z M 404.7168 105.12891 L 404.14648 110.12891 L 407.45508 114.11914 L 411.33594 114.60938 L 411.88672 112.95898 L 408.33594 112.58984 L 407.04688 110.97852 L 408.33594 108.01953 L 407.05664 105.17969 L 404.7168 105.12891 z M 381.19531 109.85352 L 378.4668 112.59375 L 377.25586 113.80469 L 381.19531 109.85352 z M 212.02539 112.12305 L 216.91406 116.56445 L 214.03711 117.61914 L 216.90625 116.56445 L 212.02539 112.12305 z M 406.08594 114.28906 L 405.86523 115.60938 L 407.20508 116.91992 L 407.74609 115.91992 L 406.08594 114.28906 z M 413.8457 115.60938 L 412.14648 116.23828 L 413.76562 118.32812 L 415.53516 118.32812 L 413.8457 115.60938 z M 408.49609 116.91992 L 407.74609 118.2793 L 408.92578 119.07812 L 410.2168 117.12891 L 408.49609 116.91992 z M 278.36523 117.13477 L 280.13672 119.10352 L 281.91602 121.10352 L 278.36523 117.13477 z M 405.00586 117.91992 L 400.70508 121.82812 L 402.27539 122.13867 L 405.06641 119.81836 L 405.00586 117.91992 z M 412.14648 117.99805 L 411.04688 118.62891 L 412.32617 120.55859 L 413.05664 119.58984 L 412.14648 117.99805 z M 410.2168 119.60938 L 409.26562 120.69922 L 410.2168 121.85938 L 411.04688 120.85938 L 410.2168 119.60938 z M 414.77539 120.03906 L 413.5957 123.11914 L 409.73633 123.11914 L 412.95508 125.41992 L 412.95508 127.64844 L 415.28516 126.94922 L 414.49609 125.50977 L 416.37695 125.0293 L 414.77539 120.03906 z M 289.00586 123.61328 L 277.93555 132.83398 L 281.15625 130.14453 L 289.00586 123.61328 z M 266.26758 124.45117 L 270.6543 129.0332 L 270.64648 129.0332 L 267.61523 129.46484 L 261.88672 130.26367 L 270.64648 129.0332 L 266.26758 124.45117 z M 403.07617 126.17383 L 400.20508 126.41406 L 396.76562 131.04492 L 388.83203 134.71289 L 388.82617 134.70898 L 388.77539 134.72852 L 388.92578 139.04883 L 391.38672 143.34961 L 399.20508 143.34961 L 403.07617 138.4082 L 403.07617 129.45312 L 403.07617 126.17383 z M 365.91602 127.64844 L 380.8457 147.97852 L 383.2168 146.00977 L 383.2168 142.70898 L 370.32617 129.33984 L 365.91602 127.64844 z M 237.99609 131.91211 L 242.65625 131.91211 L 242.65625 131.91406 L 238.01562 131.91406 L 237.99609 131.91406 L 237.99609 131.91211 z M 419.93555 132.51953 L 418.53516 133.89844 L 418.00586 137.33984 L 419.93555 137.80859 L 419.50586 134.75977 L 420.62695 133.35938 L 419.93555 132.51953 z M 103.48438 133.46484 L 103.49414 133.46484 L 104.63281 136.00977 L 104.62305 136.01367 L 103.48438 133.46484 z M 122.33398 133.55664 L 114.72461 134.4043 L 119.61328 133.85352 L 122.33398 133.55664 z M 408.01562 134.75977 L 405.45508 137.06836 L 405.63672 140.72852 L 404.14648 142.70898 L 405.07617 147.45898 L 406.92578 146.88867 L 406.36523 143.62891 L 407.45508 142.41992 L 408.37695 144.83984 L 410.5957 145.60938 L 410.5957 143.86914 L 409.3457 141.10938 L 411.7168 139.11914 L 407.93555 139.2793 L 407.15625 138.19922 L 408.65625 136.54883 L 411.43555 137.50977 L 412.80664 137.38867 L 414.85547 134.96875 L 413.05664 134.92969 L 411.88672 135.69922 L 408.01562 134.75977 z M 265.0957 136.37305 L 268.05664 136.37305 L 266.69531 138.77344 L 266.17578 139.68359 L 263.18555 139.68359 L 263.95508 138.36328 L 265.0957 136.37305 z M 90.869141 138.47656 L 99.154297 143.20898 L 99.154297 143.21484 L 90.863281 138.48047 L 90.869141 138.47656 z M 428.86523 138.68945 L 424.27539 139.33984 L 429.42578 141.66992 L 428.86523 138.68945 z M 435.56641 140.17969 L 431.41602 143.54883 L 427.02539 141.81836 L 426.53516 144.23828 L 429.11523 144.14844 L 435.51562 146.81836 L 436.66602 150.08984 L 434.53516 151.38867 L 440.01562 153.28906 L 440.01562 153.29492 L 442.00586 153.99414 L 445.81641 150.49414 L 450.75586 155.31445 L 455.26562 156.23438 L 449.68555 150.6543 L 449.95508 147.70312 L 440.01562 142.50391 L 440.01562 142.49805 L 435.56641 140.17969 z M 418.9668 142.26953 L 418.53516 143.7793 L 422.72656 143.34961 L 422.72656 142.26953 L 418.9668 142.26953 z M 456.82617 142.44336 L 455.26562 142.54492 L 459.31641 145.44336 L 460.93555 144.89453 L 456.82617 142.44336 z M 457.94531 145.44336 L 452.4668 148.21484 L 454.47656 149.41406 L 457.94531 147.46484 L 457.94531 145.44336 z M 384.82617 148.33984 L 382.40625 150.2793 L 398.51562 153.00977 L 398.27539 151.88867 L 392.47656 149.06836 L 388.8457 149.86914 L 384.82617 148.33984 z M 243.23633 151.62305 L 239.92578 151.73438 L 239.92578 151.73242 L 243.23633 151.62305 z M 406.08594 151.88867 L 406.56641 153.49805 L 408.94531 153.49805 L 409.94531 152.68945 L 408.57617 151.88867 L 406.08594 151.88867 z M 263.86523 152.04297 L 263.86523 152.04492 L 258.50586 152.85352 L 263.86523 152.04297 z M 413.36523 152.36914 L 410.87695 155.14844 L 412.76562 155.38867 L 414.45508 153.86914 L 417.51562 153.49805 L 417.51562 152.36914 L 413.36523 152.36914 z M 406.08594 154.09961 L 404.22656 154.49805 L 404.95508 155.38867 L 406.68555 155.38867 L 406.08594 154.09961 z M 247.22656 154.62305 L 259.63672 160.74219 L 259.63672 160.74414 L 250.16602 156.07422 L 247.22656 154.62305 z M 106.80469 156.26367 L 101.81445 157.67383 L 100.17578 158.13477 L 106.80469 156.26367 z M 430.80664 158.62891 L 430.80664 165.32812 L 426.00586 170.12891 L 418.80664 163.92969 L 421.00586 159.92969 L 412.30664 160.12891 L 410.00586 164.92969 L 404.80664 162.62891 L 395.30664 173.12891 L 382.50586 179.12891 L 382.50586 193.32812 L 380.50586 198.12891 L 382.00586 199.92969 L 406.30664 194.62891 L 410.30664 198.12891 L 414.50586 196.32812 L 416.00586 204.62891 L 428.30664 205.32812 L 442.50586 190.62891 L 443.30664 182.32812 L 435.50586 171.32812 L 433.00586 159.32812 L 430.80664 158.62891 z M 291.03516 159.95312 L 282.98633 168.31445 L 282.17578 174.11328 L 280.80664 177.98438 L 282.50586 182.00391 L 286.57617 182.18359 L 293.50586 159.95312 L 291.03516 159.95312 z M 265.0957 161.86328 L 261.03516 164.69336 L 255.28516 168.69336 L 265.0957 161.86328 z M 114.99414 171.82422 L 112.81445 175.82422 L 112.82227 175.82812 L 112.36328 176.66406 L 112.35352 176.66406 L 114.99414 171.82422 z M 257.95508 177.01367 L 262.55664 177.01367 L 262.55664 177.04883 L 257.95508 177.04883 L 247.01562 184.37891 L 244.33594 181.30078 L 244.33594 181.25391 L 247.01562 184.34375 L 257.95508 177.01367 z M 127.88281 183.06641 L 127.88281 183.07227 L 124.93359 184.86328 L 124.92383 184.86328 L 127.88281 183.06641 z M 260.75586 184.63281 L 262.55664 185.71289 L 262.55664 185.74805 L 260.75586 184.66992 L 260.75586 184.63281 z M 258.50586 189.89258 L 258.50586 189.92969 L 257.10547 191.38867 L 254.74609 191.38867 L 254.74609 191.35352 L 257.10547 191.35352 L 258.50586 189.89258 z M 468.20508 200.12891 L 467.00586 200.62891 L 467.00586 205.12891 L 464.00586 208.12891 L 463.00586 211.32812 L 470.30664 206.12891 L 468.20508 203.32812 L 468.20508 200.12891 z M 460.00586 210.92969 L 444.80664 218.62891 L 448.30664 220.62891 L 460.00586 212.92969 L 460.00586 210.92969 z M 119.13477 230.26367 L 117.47461 231.81445 L 119.67383 233.83398 L 126.45312 234.08398 L 119.13477 230.26367 z "
         id="path16728"
         transform="translate(17.394,11.871)" />
    </g>
  </g>
</svg>
