<?xml version="1.0" encoding="UTF-8" standalone="no"?>
<!-- Created with Inkscape (http://www.inkscape.org/) -->

<svg
   xmlns:dc="http://purl.org/dc/elements/1.1/"
   xmlns:cc="http://creativecommons.org/ns#"
   xmlns:rdf="http://www.w3.org/1999/02/22-rdf-syntax-ns#"
   xmlns:svg="http://www.w3.org/2000/svg"
   xmlns="http://www.w3.org/2000/svg"
   xmlns:xlink="http://www.w3.org/1999/xlink"
   xmlns:sodipodi="http://sodipodi.sourceforge.net/DTD/sodipodi-0.dtd"
   xmlns:inkscape="http://www.inkscape.org/namespaces/inkscape"
   width="38.979855mm"
   height="7.5173831mm"
   viewBox="0 0 38.979855 7.5173831"
   version="1.1"
   id="svg1262"
   sodipodi:docname="logo.svg"
   inkscape:version="0.92.3 (2405546, 2018-03-11)">
  <defs
     id="defs1256" />
  <sodipodi:namedview
     id="base"
     pagecolor="#ffffff"
     bordercolor="#666666"
     borderopacity="1.0"
     inkscape:pageopacity="0.0"
     inkscape:pageshadow="2"
     inkscape:zoom="5.6"
     inkscape:cx="101.86078"
     inkscape:cy="8.9271858"
     inkscape:document-units="mm"
     inkscape:current-layer="g3885"
     showgrid="false"
     fit-margin-top="0"
     fit-margin-left="0"
     fit-margin-right="0"
     fit-margin-bottom="0"
     inkscape:window-width="2560"
     inkscape:window-height="1374"
     inkscape:window-x="0"
     inkscape:window-y="0"
     inkscape:window-maximized="1" />
  <metadata
     id="metadata1259">
    <rdf:RDF>
      <cc:Work
         rdf:about="">
        <dc:format>image/svg+xml</dc:format>
        <dc:type
           rdf:resource="http://purl.org/dc/dcmitype/StillImage" />
        <dc:title />
      </cc:Work>
    </rdf:RDF>
  </metadata>
  <g
     inkscape:label="Layer 1"
     inkscape:groupmode="layer"
     id="layer1"
     transform="translate(-254.94057,-266.78298)">
    <g
       id="g3885"
       transform="matrix(0.26519825,0,0,0.26519825,228.89366,215.69135)"
       style="fill:#000000">
      <g
         style="fill:#000000;stroke:#ffffff;stroke-opacity:1"
         id="layer1-9"
         transform="matrix(0.22901929,0,0,0.22901929,26.296508,84.906304)"
         inkscape:export-filename="/home/nils/git/desec-stack/webapp/src/assets/logo.png"
         inkscape:export-xdpi="567.52002"
         inkscape:export-ydpi="567.52002">
        <g
           style="fill:#000000;stroke:#ffffff;stroke-opacity:1"
           transform="translate(-194.13584,150.8067)"
           id="g3933">
          <path
             inkscape:connector-curvature="0"
             d="m 509.13584,366.2239 c 8.87906,-33.13708 42.93987,-52.8021 76.07695,-43.92304 21.43594,5.74374 38.17931,22.48711 43.92305,43.92304 0,0 -6.09923,-6.07815 -10,-6.07815 -3.90077,0 -10,6.07815 -10,6.07815 0,0 -6.09923,-6.07815 -10,-6.07815 -3.90077,0 -10,6.07815 -10,6.07815 0,0 -6.09923,-6.07815 -10,-6.07815 -3.90077,0 -10,6.07815 -10,6.07815 0,0 -6.09923,-6.07815 -10,-6.07815 -3.90077,0 -10,6.07815 -10,6.07815 0,0 -6.09923,-6.07815 -10,-6.07815 -3.90077,0 -10,6.07815 -10,6.07815 0,0 -6.09923,-6.07815 -10,-6.07815 -3.90077,0 -10,6.07815 -10,6.07815 z"
             id="path2985-6-3"
             style="color:#000000;display:inline;overflow:visible;visibility:visible;fill:#000000;fill-opacity:1;stroke:#ffffff;stroke-width:0.99999994;stroke-miterlimit:4;stroke-dasharray:none;stroke-opacity:1;marker:none;enable-background:accumulate" />
          <path
             inkscape:connector-curvature="0"
             d="m 567.42674,364.89583 v 61.87321 c 0,9.34738 5.48085,16.17306 12.23879,16.17306 6.75795,0 12.23635,-6.83606 12.23635,-16.18344 0,0 -1.07806,-1.02674 -1.75904,-1.03964 -0.64261,-0.0122 -1.69589,0.91753 -1.69589,0.91753 0,6.70817 -3.93157,13.01592 -8.78142,13.01592 -4.84984,0 -8.78142,-6.30775 -8.78142,-13.01592 l -7.6e-4,-61.74072 z"
             id="path3775-7-4-6"
             style="color:#000000;display:inline;overflow:visible;visibility:visible;fill:#000000;fill-opacity:1;stroke:#ffffff;stroke-width:1;stroke-linecap:butt;stroke-linejoin:miter;stroke-miterlimit:4;stroke-dasharray:none;stroke-dashoffset:117.14173126;stroke-opacity:1;marker:none;enable-background:accumulate" />
        </g>
      </g>
      <g
         aria-label="deSEC"
         style="font-style:normal;font-variant:normal;font-weight:normal;font-stretch:normal;line-height:0%;font-family:'Linux Biolinum O';-inkscape-font-specification:'Linux Biolinum O';letter-spacing:0px;word-spacing:0px;fill:#000000;fill-opacity:1;stroke:none"
         id="text3809">
        <path
           d="m 154.14496,216.08074 c -1.48,1.88 -3.32,2.84 -4.92,2.84 -2.16,0 -4,-2.16 -4,-7.16 0,-6 3.16,-7.12 5.12,-7.12 1.88,0 2.84,0.8 3.8,2.32 z m 0,2.2 h 0.08 l 0.2,2.32 c 0,0.08 0.12,0.12 0.36,0.12 0.52,-0.04 0.8,-0.12 1.36,-0.12 0.52,0 1.28,0.04 1.8,0.12 l 0.08,-0.12 c -0.32,-1.72 -0.68,-4.68 -0.68,-7.68 v -12.32 c 0,-2.96 0.16,-5.04 0.36,-7.52 0,-0.28 -0.12,-0.4 -0.36,-0.4 -1.04,0.4 -1.88,0.68 -3.48,0.8 l -0.08,0.12 c 0.28,1.72 0.36,4.68 0.36,7.72 v 2.6 c -0.92,-0.52 -2.56,-0.88 -3.36,-0.88 -5.24,0 -9.04,3.6 -9.04,9.04 0,4.92 2.92,8.92 7.24,8.92 1.92,0 3.72,-0.84 5.16,-2.72 z"
           style="font-size:40px;line-height:1.25;fill:#000000"
           id="path3774" />
        <path
           d="m 165.87683,209.68074 c 0.68,-4.16 3.28,-5.04 4.56,-5.04 1.56,0 3.36,1.48 3.36,4.48 0,0.36 -0.16,0.56 -0.56,0.56 z m 10.68,6.76 c -1.4,1.52 -3.28,2.2 -5.48,2.2 -1.4,0 -3.28,-0.52 -4.36,-2.28 -0.72,-1.12 -0.96,-2.72 -0.96,-5.08 h 10.88 c 0.44,0 0.72,-0.24 0.72,-0.68 0,-3.36 -1.64,-7.56 -6.92,-7.56 -4.12,0 -8.2,3.32 -8.2,9.2 0,2.28 0.44,4.52 1.8,6.12 1.36,1.68 3.64,2.64 6.36,2.64 2.88,0 5.44,-1.48 6.96,-3.56 z"
           style="font-size:40px;line-height:1.25;fill:#000000"
           id="path3776" />
        <path
           d="m 188.68183,219.24074 c -2.24,0 -5.12,-1.96 -6.36,-4.32 l -0.4,0.04 c -0.16,1.44 -0.6,2.92 -0.92,4.12 l 0.08,0.12 c 0,0 2.6,1.8 7.28,1.8 4.92,0 8.72,-3 8.72,-7.64 0,-4.64 -3.96,-6.76 -7.16,-8 -2.04,-0.76 -4.88,-1.92 -4.88,-5.24 0,-1.44 0.8,-3.04 1.84,-3.6 0.68,-0.36 1.52,-0.48 2.44,-0.48 2.2,0 4.36,1.72 5.44,4.2 l 0.4,-0.04 c 0.16,-1.44 0.56,-2.8 0.92,-4 l -0.08,-0.12 c 0,0 -1.68,-1.8 -6.36,-1.8 -1.08,0 -2.28,0.2 -3.44,0.68 -2.36,1 -4.4,3.32 -4.4,6.24 0,4.2 3.56,6.16 6.88,7.56 2.6,1.08 4.68,2.4 4.68,5.8 0,3 -2.32,4.68 -4.68,4.68 z"
           style="font-size:40px;line-height:1.25;fill:#000000"
           id="path3778" />
        <path
           d="m 206.83621,212.60074 v -4.68 c 1.92,0 6.16,0.12 8.92,0.4 l 0.12,-0.12 c -0.08,-0.36 -0.12,-0.92 -0.12,-1.28 0,-0.36 0.04,-0.92 0.12,-1.28 l -0.12,-0.12 c -2.36,0.2 -4.2,0.4 -8.92,0.4 v -3.12 c 0,-0.68 0.04,-4.8 0.32,-5.76 5.36,0 10.88,0.48 10.88,0.48 l 0.08,-0.16 c -0.04,-0.32 -0.08,-0.68 -0.08,-1.04 0,-0.32 0.04,-0.96 0.08,-1.52 l -0.08,-0.12 c -0.64,0.08 -1.56,0.12 -2.4,0.12 h -10.52 c -1.36,0 -2.04,-0.12 -2.04,-0.12 l -0.08,0.12 c 0.32,2.28 0.4,5 0.4,8 v 9.8 c 0,3 -0.08,5.84 -0.4,8 l 0.04,0.12 c 0,0 0.68,-0.12 2.08,-0.12 h 10.92 c 0.84,0 1.76,0.04 2.4,0.12 l 0.08,-0.12 c -0.04,-0.56 -0.08,-0.84 -0.08,-1.24 0,-0.4 0.04,-1 0.08,-1.32 l -0.08,-0.16 c 0,0 -5.92,0.48 -11.28,0.48 -0.28,-0.96 -0.32,-5.08 -0.32,-5.76 z"
           style="font-size:40px;line-height:1.25;fill:#000000"
           id="path3780" />
        <path
           d="m 235.92058,194.28074 c -6.76,0 -13.12,5.84 -13.12,13.72 0,6.92 3.96,13 12.56,13 3.68,0 7.16,-1.12 9.84,-4.36 -0.04,-0.48 -0.12,-1.36 -0.24,-1.72 l -0.28,-0.12 c -2.84,3.12 -5.24,4.16 -8.96,4.16 -5.08,0 -8.8,-5.48 -8.8,-11.72 0,-8.12 5.16,-11.08 8.44,-11.08 3.6,0 6.52,1.44 8.16,4.72 l 0.48,-0.04 c 0.12,-2.04 0.28,-2.72 0.72,-4.44 l -0.08,-0.12 c 0,0 -3.84,-2 -8.72,-2 z"
           style="font-size:40px;line-height:1.25;fill:#000000"
           id="path3782" />
      </g>
      <g
         transform="matrix(0.09840083,0,0,0.09840083,135.72929,195.1403)"
         id="layer1-3">
        <g
           id="g953">
          <path
             inkscape:connector-curvature="0"
             xlink:href="#path905"
             style="opacity:1;fill:#000000;fill-opacity:1;fill-rule:nonzero;stroke:none;stroke-width:12.18422604;stroke-linecap:round;stroke-linejoin:round;stroke-miterlimit:4;stroke-dasharray:none;stroke-dashoffset:0;stroke-opacity:1;paint-order:markers stroke fill"
             id="path931"
             d="m 321.47461,125.28125 c -0.94586,-0.0104 -1.75181,0.17634 -2.39258,0.375 a 3.7145497,3.7145497 0 0 0 -0.39844,0.15039 c -0.7426,0.2622 -1.41179,0.5395 -1.67968,0.62695 -19.03404,6.21271 -34.55617,20.93007 -45.99024,36.99414 -10.37983,14.58295 -17.20986,30.0929 -20.23633,42.34961 -1.31337,-0.0922 -2.64678,-0.0146 -3.90234,0.38282 a 3.7145497,3.7145497 0 0 0 -0.0117,0.004 c -3.48847,1.11664 -6.13863,4.25712 -6.99023,7.79492 -0.0107,0.003 -0.0225,5.2e-4 -0.0332,0.004 a 3.7145497,3.7145497 0 0 0 -0.004,0 c -5.24508,1.67494 -8.49562,7.97121 -6.82227,13.2168 a 3.7145497,3.7145497 0 0 0 0.002,0.004 c 0.95554,2.98093 3.39021,5.35141 6.28516,6.51172 0.0811,0.56756 0.12782,1.14279 0.30078,1.68946 a 3.7145497,3.7145497 0 0 0 0.002,0.008 c 1.67486,5.24643 7.97241,8.49743 13.21875,6.82226 a 3.7145497,3.7145497 0 0 0 0.006,-0.002 c 2.49441,-0.79983 4.53884,-2.65309 5.8418,-4.91992 1.19513,0.0412 2.39896,-0.0937 3.53906,-0.45508 a 3.7145497,3.7145497 0 0 0 0.006,-0.002 c 1.46909,-0.46899 2.72281,-1.3545 3.81446,-2.42383 -1.03299,3.00243 -1.17416,6.29621 -0.0996,9.28125 a 3.7145497,3.7145497 0 0 0 0.002,0.004 c 1.05585,2.92224 3.203,5.3577 5.83594,7.02148 3.72107,4.87598 10.71335,7.02033 16.55469,4.91797 a 3.7145497,3.7145497 0 0 0 0.01,-0.004 c 1.5559,-0.56489 2.95099,-1.46224 4.23828,-2.5 3.38556,1.39433 7.29582,1.55453 10.76172,0.30469 a 3.7145497,3.7145497 0 0 0 0.006,-0.002 c 2.48681,-0.90208 4.65696,-2.54056 6.3457,-4.56641 3.50989,1.62324 7.67108,1.91493 11.33789,0.59766 a 3.7145497,3.7145497 0 0 0 0.0117,-0.006 c 1.62559,-0.59061 3.07191,-1.55004 4.40039,-2.6543 2.83028,0.68637 5.86564,0.55792 8.61524,-0.43359 a 3.7145497,3.7145497 0 0 0 0.002,-0.002 c 3.027,-1.09394 5.58181,-3.27078 7.3418,-5.94726 3.34539,1.3225 7.16673,1.51705 10.57226,0.28906 a 3.7145497,3.7145497 0 0 0 0.006,-0.002 c 2.85044,-1.03273 5.27566,-3.03168 7.02539,-5.49219 3.47077,1.54622 7.53673,1.84083 11.13868,0.54687 a 3.7145497,3.7145497 0 0 0 0.01,-0.004 c 2.74495,-0.99415 5.1574,-2.83282 6.89453,-5.16602 1.73039,0.002 3.459,-0.18105 5.08985,-0.76562 a 3.7145497,3.7145497 0 0 0 0.0117,-0.004 c 2.75473,-0.99886 5.16176,-2.86606 6.9004,-5.21094 2.94258,0.66539 6.07069,0.52749 8.9121,-0.49414 a 3.7145497,3.7145497 0 0 0 0.0117,-0.004 c 2.46504,-0.8944 4.55534,-2.54673 6.30078,-4.50196 1.30709,-0.10774 2.60434,-0.32303 3.83985,-0.76562 a 3.7145497,3.7145497 0 0 0 0.0137,-0.004 c 4.34915,-1.57569 7.73654,-5.33833 9.05274,-9.73242 4.98445,-3.67603 7.54027,-10.50365 5.44921,-16.32031 a 3.7145497,3.7145497 0 0 0 -0.004,-0.01 c -1.41214,-3.89658 -4.69252,-6.9819 -8.60157,-8.40234 -3.38749,-3.5128 -8.5378,-5.03074 -13.37109,-4.11133 -27.51448,-38.37803 -53.61131,-54.71912 -79.16601,-54.98828 z m 69.68555,59.01367 c -15.1699,-0.51398 15.47607,0.87902 0.34375,0.0156 a 3.7145497,3.7145497 0 0 0 -0.14453,-0.004 c -0.2479,-0.004 -0.49627,-0.004 -0.74415,0.004 3.04037,-0.10339 10.8195,-0.41983 0.27735,-0.0137 z m -30.44727,11.60352 c -7.58541,0.0555 7.87908,0.0999 0.30273,0.002 -6.49442,-0.084 1.91373,0.0911 0.25782,0.006 -0.24702,-0.005 -0.49514,-0.005 -0.74219,0.002 a 3.7145497,3.7145497 0 0 0 -0.19141,0.01 c -15.25542,1.22186 15.39838,-1.09034 0.13868,-0.01 z m -3.77734,0.61133 c -0.26569,0.0738 -0.52977,0.15581 -0.79102,0.24414 -0.002,6.5e-4 -0.004,0.001 -0.006,0.002 a 3.7145497,3.7145497 0 0 0 -0.31055,0.11914 l 0.32618,-0.12695 c -7.24143,2.42499 7.72099,-2.34769 0.41406,-0.13282 -6.45076,1.95536 2.7676,-0.71808 0.36719,-0.10546 z m -11.77149,5.92968 0.27149,0.002 c -15.16368,-0.66319 15.42007,0.97532 0.29101,0.0156 a 3.7145497,3.7145497 0 0 0 -0.16601,-0.006 c -0.24355,-0.004 -0.48693,-0.004 -0.73047,0.004 2.38911,-0.0319 11.30566,-0.33856 0.33398,-0.0156 z m -18.53515,4.95899 c -7.5864,0.0489 7.87043,0.10255 0.29297,0.002 -6.42374,-0.0853 1.62974,0.0819 0.25,0.006 -0.24443,-0.005 -0.48798,-0.005 -0.73243,0.002 a 3.7145497,3.7145497 0 0 0 -0.17968,0.01 c -15.25605,1.1642 15.40636,-1.0247 0.14648,-0.01 z m -11.49024,3.52734 0.28906,0.006 c -15.14999,-0.92523 15.31737,1.13486 0.19336,0.0137 a 3.7145497,3.7145497 0 0 0 -0.21289,-0.01 c -0.23554,-0.004 -0.4715,-0.003 -0.70703,0.004 1.82037,-0.0648 5.18323,-0.18053 0.17383,-0.008 -7.59836,0.26198 7.85845,-0.13331 0.26367,-0.006 z m -14.74609,3.625 h 0.30664 c -15.15509,-0.69843 15.43617,1.04343 0.32031,0.0195 a 3.7145497,3.7145497 0 0 0 -0.17383,-0.008 c -0.24442,-0.005 -0.48797,-0.005 -0.73242,0.002 3.37755,-0.12016 10.544,-0.38758 0.2793,-0.0137 z m -25.0293,2.1836 c 0.17403,1.52017 0.37832,3.08528 0.6211,4.69921 -2.21097,1.55704 -3.94327,3.73065 -5.0254,6.19532 -0.75139,0.59028 -1.50208,1.18043 -2.11914,1.9082 0.58112,-1.94245 0.81741,-3.97776 0.19727,-5.91992 a 3.7145497,3.7145497 0 0 0 -0.002,-0.008 c -0.0542,-0.1686 -0.1971,-0.29339 -0.25977,-0.45899 2.03361,-1.72357 4.21752,-3.82387 6.58789,-6.41601 z m 9.22656,1.96874 c -15.17128,-0.45173 15.50139,0.84321 0.36914,0.0156 a 3.7145497,3.7145497 0 0 0 -0.13867,-0.004 c -0.0156,-2.6e-4 -0.0313,2.2e-4 -0.0469,0 a 3.7145497,3.7145497 0 0 0 -0.1836,-0.0117 z m -0.25586,0.004 0.0117,0.01 c -0.0832,0.001 -0.16679,-6.6e-4 -0.25,0.002 3.48915,-0.1378 10.38924,-0.40896 0.23828,-0.0117 z"
             transform="translate(-229.85179,-107.97689)" />
          <path
             inkscape:connector-curvature="0"
             style="opacity:1;fill:#d40000;fill-opacity:1;fill-rule:nonzero;stroke:none;stroke-width:3.2237432;stroke-linecap:round;stroke-linejoin:round;stroke-miterlimit:4;stroke-dasharray:none;stroke-dashoffset:0;stroke-opacity:1;paint-order:markers stroke fill"
             d="m 88.30521,21.987273 c -35.88343,11.71235 -60.18146,56.494686 -64.74024,80.310857 0.61053,0.34453 1.16415,0.78136 1.64125,1.29501 0.40931,-0.2333 0.84175,-0.42345 1.29036,-0.5674 3.5795,-1.1431 7.40792,0.83207 8.5509,4.41161 0.70336,2.21313 0.22933,4.63216 -1.25729,6.41615 0.17343,0.16113 0.33833,0.33121 0.49403,0.50953 3.8533,-2.83454 8.72111,-7.76357 14.67713,-15.262121 -0.0812,0.0709 -0.50856,-0.0795 -0.67334,-0.83819 -0.11099,-0.42558 -0.15079,-0.92943 -0.11679,-1.55701 0.0623,-1.25426 0.34624,-2.63882 0.90125,-4.42867 1.04812,-3.40383 2.75672,-7.29101 5.36091,-11.6303 0.32083,-0.53719 0.65373,-1.07866 0.99891,-1.62109 2.36405,-3.71509 4.8069,-6.67924 7.43934,-9.0196 1.65759,-1.48014 3.21268,-2.49812 4.73821,-3.14555 2.88351,-1.24918 4.57504,-0.46172 4.55319,-0.2465 -0.0305,0.3003 -1.64473,0.33741 -3.81836,1.67432 -1.2654,0.79131 -2.46814,1.81605 -3.93052,3.32693 -2.31989,2.40764 -4.43637,5.21125 -6.74738,8.83409 -0.33398,0.52358 -0.66045,1.0468 -0.97977,1.56476 -2.62152,4.27279 -4.38143,7.70669 -5.80224,10.93576 -0.76179,1.74326 -1.16554,2.76413 -1.51516,3.95222 -0.16841,0.58435 -0.25239,0.91025 -0.30747,1.30018 -0.04,0.46587 -0.0731,0.87454 -0.10078,0.89865 -0.52279,3.032111 0.12329,9.718781 1.17771,16.318381 0.24541,-0.11308 0.49484,-0.21737 0.74777,-0.31264 3.3227,-1.19514 6.99831,-0.76878 9.87226,1.14515 1.27702,-2.44591 3.45799,-4.34206 6.09367,-5.29787 2.98848,-1.07577 6.28101,-0.84479 9.02375,0.63304 1.31313,-1.94966 3.23328,-3.44351 5.46994,-4.25556 2.33415,-0.84173 4.87533,-0.89256 7.20733,-0.14417 1.26774,-1.53342 2.93635,-2.70703 4.82346,-3.39256 3.95143,-1.41963 8.33915,-0.53117 11.29543,2.2872 0.97716,-3.32989 3.54061,-6.0272 6.87764,-7.236771 3.00373,-1.08194 6.31412,-0.8434 9.06454,0.65319 0.98418,-3.31594 3.54214,-5.99958 6.86782,-7.20524 2.85154,-1.02334 5.98519,-0.85946 8.65579,0.45268 0.86297,-3.54041 3.50867,-6.44826 7.01974,-7.71529 2.78382,-1.00008 5.84008,-0.86942 8.47339,0.36225 1.3122,-2.16245 3.35205,-3.82429 5.76397,-4.69583 2.26463,-0.81414 4.72528,-0.88479 7.00164,-0.20103 1.18667,-1.78261 2.88229,-3.19353 4.87207,-4.05401 C 155.98739,55.914699 117.33538,12.078523 88.30521,21.987273 Z"
             id="rect817" />
          <path
             inkscape:connector-curvature="0"
             id="path881"
             d="m 51.642512,116.24067 a 10.583333,10.951907 70.160879 0 1 9.87244,1.14508 10.583333,10.951907 70.160879 0 1 6.09357,-5.29806 10.583333,10.951907 70.160879 0 1 9.02378,0.63327 10.583333,10.951907 70.160879 0 1 5.47022,-4.2557 10.583333,10.951907 70.160879 0 1 7.20721,-0.14409 10.583333,10.951907 70.160879 0 1 4.82311,-3.39266 10.583333,10.951907 70.160879 0 1 11.295418,2.28749 10.583333,10.951907 70.160879 0 1 6.87786,-7.236832 10.583333,10.951907 70.160879 0 1 9.06451,0.653172 10.583333,10.951907 70.160879 0 1 6.8677,-7.205142 10.583333,10.951907 70.160879 0 1 8.65602,0.45226 10.583333,10.951907 70.160879 0 1 7.01959,-7.71537 10.583333,10.951907 70.160879 0 1 8.47292,0.3623 10.583333,10.951907 70.160879 0 1 5.76467,-4.69541 10.583333,10.951907 70.160879 0 1 7.00132,-0.2011 10.583333,10.951907 70.160879 0 1 5.50835,-4.31231 10.583333,10.951907 70.160879 0 1 12.32678,3.40966 10.583333,10.951907 70.160879 0 1 7.0419,6.47888 10.583333,10.951907 70.160879 0 1 -5.12947,12.946312 10.583333,10.951907 70.160879 0 1 -7.14299,8.35816 10.583333,10.951907 70.160879 0 1 -4.23462,0.65433 12.095237,12.125325 70.160879 0 1 -5.92233,4.61769 12.095237,12.125325 70.160879 0 1 -9.3213,-0.45891 10.583333,10.951907 70.160879 0 1 -6.49927,6.16687 10.583333,10.951907 70.160879 0 1 -5.81953,0.48121 10.583333,10.951907 70.160879 0 1 -6.17697,5.45452 10.583333,10.951907 70.160879 0 1 -11.29543,-2.2875 10.583333,10.951907 70.160879 0 1 -6.87786,7.23684 10.583333,10.951907 70.160879 0 1 -10.93054,-1.93954 10.583333,10.951907 70.160879 0 1 -6.98667,7.60023 10.583333,10.951907 70.160879 0 1 -8.243288,-0.24903 10.583333,10.951907 70.160879 0 1 -4.77903,3.33995 10.583333,10.951907 70.160879 0 1 -11.19615,-2.19201 10.583333,10.951907 70.160879 0 1 -6.49811,6.16534 10.583333,10.951907 70.160879 0 1 -10.10172,-1.29365 10.583333,10.951907 70.160879 0 1 -4.90562,3.4933 10.583333,10.951907 70.160879 0 1 -12.83788,-4.13612 10.583333,10.951907 70.160879 0 1 -4.80287,-5.57213 10.583333,10.951907 70.160879 0 1 4.59381,-12.64096 10.583333,10.951907 70.160879 0 1 6.72047,-6.71034 z"
             style="opacity:1;fill:#ffffff;fill-opacity:1;fill-rule:nonzero;stroke:none;stroke-width:2.71100831;stroke-linecap:round;stroke-linejoin:round;stroke-miterlimit:4;stroke-dasharray:none;stroke-dashoffset:0;stroke-opacity:1;paint-order:markers stroke fill" />
          <path
             inkscape:connector-curvature="0"
             id="path883"
             d="m 16.633385,102.85812 a 6.8035712,6.8035712 0 0 1 7.06026,1.86895 6.8035712,6.8035712 0 0 1 1.29044,-0.56772 6.8035712,6.8035712 0 0 1 8.55084,4.41185 6.8035712,6.8035712 0 0 1 -1.25709,6.41627 6.8035712,6.8035712 0 0 1 1.85618,2.91492 6.8035712,6.8035712 0 0 1 -4.41185,8.55083 6.8035712,6.8035712 0 0 1 -4.72251,-0.22529 6.8035712,6.8035712 0 0 1 -4.66963,5.60454 6.8035712,6.8035712 0 0 1 -8.55068,-4.41135 6.8035712,6.8035712 0 0 1 -0.16463,-3.48704 6.8035712,6.8035712 0 0 1 -6.4252298,-4.72547 6.8035712,6.8035712 0 0 1 4.41201,-8.55035 6.8035712,6.8035712 0 0 1 2.3759398,-0.3111 6.8035712,6.8035712 0 0 1 4.65595,-7.48904 z"
             style="opacity:1;fill:#ffffff;fill-opacity:1;fill-rule:nonzero;stroke:none;stroke-width:2.66499996;stroke-linecap:round;stroke-linejoin:round;stroke-miterlimit:4;stroke-dasharray:none;stroke-dashoffset:0;stroke-opacity:1;paint-order:markers stroke fill" />
        </g>
      </g>
    </g>
  </g>
</svg>
