<?xml version="1.0" encoding="UTF-8" standalone="no"?>
<svg
   xmlns:dc="http://purl.org/dc/elements/1.1/"
   xmlns:cc="http://creativecommons.org/ns#"
   xmlns:rdf="http://www.w3.org/1999/02/22-rdf-syntax-ns#"
   xmlns:svg="http://www.w3.org/2000/svg"
   xmlns="http://www.w3.org/2000/svg"
   height="1573.7953"
   width="1061.7953"
   version="1.1"
   id="svg3025"
   viewBox="0 -256 1061.7953 1573.7953">
  <metadata
     id="metadata3035">
    <rdf:RDF>
      <cc:Work
         rdf:about="">
        <dc:format>image/svg+xml</dc:format>
        <dc:type
           rdf:resource="http://purl.org/dc/dcmitype/StillImage" />
        <dc:title></dc:title>
      </cc:Work>
    </rdf:RDF>
  </metadata>
  <defs
     id="defs3033" />
  <g
     style="stroke:#ffffff;stroke-width:37.79527664;stroke-miterlimit:4;stroke-dasharray:none;stroke-opacity:1"
     id="g3027"
     transform="matrix(1,0,0,-1,18.897638,1170.8976)">
    <path
       style="fill:currentColor;stroke:#ffffff;stroke-width:37.79527664;stroke-miterlimit:4;stroke-dasharray:none;stroke-opacity:1"
       id="path3029"
       d="m 768,896 q 0,106 -75,181 -75,75 -181,75 -106,0 -181,-75 -75,-75 -75,-181 0,-106 75,-181 75,-75 181,-75 106,0 181,75 75,75 75,181 z m 256,0 q 0,-109 -33,-179 L 627,-57 q -16,-33 -47.5,-52 -31.5,-19 -67.5,-19 -36,0 -67.5,19 Q 413,-90 398,-57 L 33,717 Q 0,787 0,896 q 0,212 150,362 150,150 362,150 212,0 362,-150 150,-150 150,-362 z" />
  </g>
</svg>
